<svg width="334" height="68" viewBox="0 0 334 68" fill="none" xmlns="http://www.w3.org/2000/svg">
<g clip-path="url(#clip0_2253_3001)">
<rect width="334" height="121" rx="8" fill="#011C30"/>
<path d="M55.8849 30.3569V20.1751H59.9616C60.7107 20.1751 61.3355 20.2861 61.8359 20.5082C62.3364 20.7303 62.7126 21.0385 62.9645 21.4329C63.2164 21.824 63.3423 22.2748 63.3423 22.7852C63.3423 23.1829 63.2628 23.5326 63.1037 23.8342C62.9446 24.1325 62.7259 24.3778 62.4474 24.57C62.1723 24.7589 61.8575 24.8932 61.5028 24.9727V25.0721C61.8906 25.0887 62.2536 25.1981 62.5916 25.4003C62.933 25.6024 63.2098 25.8858 63.4219 26.2504C63.634 26.6117 63.7401 27.0425 63.7401 27.543C63.7401 28.0833 63.6058 28.5655 63.3374 28.9897C63.0722 29.4107 62.6795 29.7438 62.1591 29.989C61.6387 30.2343 60.9974 30.3569 60.2351 30.3569H55.8849ZM58.0376 28.597H59.7926C60.3925 28.597 60.83 28.4826 61.1051 28.254C61.3802 28.0219 61.5178 27.7137 61.5178 27.3292C61.5178 27.0475 61.4498 26.7989 61.3139 26.5835C61.178 26.3681 60.9841 26.199 60.7322 26.0764C60.4837 25.9538 60.187 25.8924 59.8423 25.8924H58.0376V28.597ZM58.0376 24.4358H59.6335C59.9285 24.4358 60.1903 24.3844 60.419 24.2816C60.651 24.1756 60.8333 24.0264 60.9659 23.8342C61.1018 23.642 61.1697 23.4116 61.1697 23.1432C61.1697 22.7753 61.0388 22.4786 60.777 22.2532C60.5185 22.0279 60.1506 21.9152 59.6733 21.9152H58.0376V24.4358ZM68.5513 30.5061C67.7791 30.5061 67.1112 30.342 66.5478 30.0139C65.9876 29.6825 65.5551 29.2218 65.2502 28.6318C64.9453 28.0385 64.7928 27.3508 64.7928 26.5686C64.7928 25.7798 64.9453 25.0904 65.2502 24.5004C65.5551 23.9071 65.9876 23.4464 66.5478 23.1183C67.1112 22.7869 67.7791 22.6211 68.5513 22.6211C69.3236 22.6211 69.9898 22.7869 70.5499 23.1183C71.1133 23.4464 71.5475 23.9071 71.8525 24.5004C72.1574 25.0904 72.3098 25.7798 72.3098 26.5686C72.3098 27.3508 72.1574 28.0385 71.8525 28.6318C71.5475 29.2218 71.1133 29.6825 70.5499 30.0139C69.9898 30.342 69.3236 30.5061 68.5513 30.5061ZM68.5613 28.8655C68.9126 28.8655 69.2059 28.766 69.4412 28.5672C69.6766 28.365 69.8539 28.0899 69.9732 27.7419C70.0958 27.3939 70.1571 26.9978 70.1571 26.5537C70.1571 26.1095 70.0958 25.7135 69.9732 25.3655C69.8539 25.0174 69.6766 24.7424 69.4412 24.5402C69.2059 24.338 68.9126 24.2369 68.5613 24.2369C68.2066 24.2369 67.9083 24.338 67.6664 24.5402C67.4277 24.7424 67.2471 25.0174 67.1245 25.3655C67.0051 25.7135 66.9455 26.1095 66.9455 26.5537C66.9455 26.9978 67.0051 27.3939 67.1245 27.7419C67.2471 28.0899 67.4277 28.365 67.6664 28.5672C67.9083 28.766 68.2066 28.8655 68.5613 28.8655ZM77.1373 30.5061C76.365 30.5061 75.6971 30.342 75.1337 30.0139C74.5736 29.6825 74.141 29.2218 73.8361 28.6318C73.5312 28.0385 73.3787 27.3508 73.3787 26.5686C73.3787 25.7798 73.5312 25.0904 73.8361 24.5004C74.141 23.9071 74.5736 23.4464 75.1337 23.1183C75.6971 22.7869 76.365 22.6211 77.1373 22.6211C77.9095 22.6211 78.5757 22.7869 79.1358 23.1183C79.6993 23.4464 80.1335 23.9071 80.4384 24.5004C80.7433 25.0904 80.8958 25.7798 80.8958 26.5686C80.8958 27.3508 80.7433 28.0385 80.4384 28.6318C80.1335 29.2218 79.6993 29.6825 79.1358 30.0139C78.5757 30.342 77.9095 30.5061 77.1373 30.5061ZM77.1472 28.8655C77.4985 28.8655 77.7918 28.766 78.0272 28.5672C78.2625 28.365 78.4398 28.0899 78.5591 27.7419C78.6818 27.3939 78.7431 26.9978 78.7431 26.5537C78.7431 26.1095 78.6818 25.7135 78.5591 25.3655C78.4398 25.0174 78.2625 24.7424 78.0272 24.5402C77.7918 24.338 77.4985 24.2369 77.1472 24.2369C76.7926 24.2369 76.4943 24.338 76.2523 24.5402C76.0137 24.7424 75.833 25.0174 75.7104 25.3655C75.5911 25.7135 75.5314 26.1095 75.5314 26.5537C75.5314 26.9978 75.5911 27.3939 75.7104 27.7419C75.833 28.0899 76.0137 28.365 76.2523 28.5672C76.4943 28.766 76.7926 28.8655 77.1472 28.8655ZM88.6266 24.8981L86.6877 25.0174C86.6545 24.8517 86.5833 24.7026 86.4739 24.57C86.3645 24.4341 86.2203 24.3264 86.0414 24.2468C85.8657 24.164 85.6552 24.1226 85.41 24.1226C85.0819 24.1226 84.8051 24.1922 84.5797 24.3314C84.3543 24.4673 84.2417 24.6495 84.2417 24.8782C84.2417 25.0605 84.3146 25.2147 84.4604 25.3406C84.6062 25.4665 84.8565 25.5676 85.2111 25.6439L86.5932 25.9223C87.3356 26.0747 87.8891 26.32 88.2537 26.6581C88.6183 26.9961 88.8006 27.4403 88.8006 27.9905C88.8006 28.4909 88.6531 28.9301 88.3581 29.3079C88.0665 29.6858 87.6654 29.9807 87.155 30.1929C86.6479 30.4017 86.0629 30.5061 85.4 30.5061C84.3891 30.5061 83.5837 30.2956 82.9838 29.8747C82.3873 29.4504 82.0376 28.8737 81.9348 28.1446L84.0179 28.0352C84.0809 28.3434 84.2334 28.5788 84.4753 28.7412C84.7173 28.9003 85.0272 28.9798 85.405 28.9798C85.7762 28.9798 86.0745 28.9085 86.2999 28.766C86.5286 28.6202 86.6446 28.4329 86.6479 28.2042C86.6446 28.012 86.5634 27.8546 86.4043 27.7319C86.2452 27.606 85.9999 27.5099 85.6685 27.4436L84.3461 27.1801C83.6003 27.0309 83.0452 26.7724 82.6806 26.4045C82.3193 26.0366 82.1387 25.5676 82.1387 24.9976C82.1387 24.507 82.2712 24.0844 82.5364 23.7298C82.8049 23.3752 83.181 23.1017 83.665 22.9095C84.1522 22.7173 84.7222 22.6211 85.3752 22.6211C86.3397 22.6211 87.0987 22.825 87.6522 23.2326C88.209 23.6403 88.5338 24.1955 88.6266 24.8981ZM94.196 22.7206V24.3115H89.5973V22.7206H94.196ZM90.6413 20.891H92.7592V28.0103C92.7592 28.2059 92.7891 28.3584 92.8487 28.4677C92.9084 28.5738 92.9912 28.6484 93.0973 28.6915C93.2067 28.7345 93.3326 28.7561 93.4751 28.7561C93.5746 28.7561 93.674 28.7478 93.7734 28.7312C93.8729 28.7113 93.9491 28.6964 94.0021 28.6865L94.3352 30.2625C94.2292 30.2956 94.08 30.3337 93.8878 30.3768C93.6955 30.4232 93.4619 30.4514 93.1868 30.4613C92.6764 30.4812 92.2289 30.4133 91.8445 30.2575C91.4633 30.1017 91.1667 29.8598 90.9545 29.5316C90.7424 29.2035 90.638 28.7892 90.6413 28.2888V20.891ZM98.2591 20.1751H100.67L102.992 24.5601H103.091L105.413 20.1751H107.824L104.111 26.7575V30.3569H101.973V26.7575L98.2591 20.1751ZM110.811 30.5061C110.039 30.5061 109.371 30.342 108.808 30.0139C108.247 29.6825 107.815 29.2218 107.51 28.6318C107.205 28.0385 107.053 27.3508 107.053 26.5686C107.053 25.7798 107.205 25.0904 107.51 24.5004C107.815 23.9071 108.247 23.4464 108.808 23.1183C109.371 22.7869 110.039 22.6211 110.811 22.6211C111.583 22.6211 112.25 22.7869 112.81 23.1183C113.373 23.4464 113.807 23.9071 114.112 24.5004C114.417 25.0904 114.57 25.7798 114.57 26.5686C114.57 27.3508 114.417 28.0385 114.112 28.6318C113.807 29.2218 113.373 29.6825 112.81 30.0139C112.25 30.342 111.583 30.5061 110.811 30.5061ZM110.821 28.8655C111.172 28.8655 111.466 28.766 111.701 28.5672C111.936 28.365 112.114 28.0899 112.233 27.7419C112.356 27.3939 112.417 26.9978 112.417 26.5537C112.417 26.1095 112.356 25.7135 112.233 25.3655C112.114 25.0174 111.936 24.7424 111.701 24.5402C111.466 24.338 111.172 24.2369 110.821 24.2369C110.466 24.2369 110.168 24.338 109.926 24.5402C109.688 24.7424 109.507 25.0174 109.384 25.3655C109.265 25.7135 109.205 26.1095 109.205 26.5537C109.205 26.9978 109.265 27.3939 109.384 27.7419C109.507 28.0899 109.688 28.365 109.926 28.5672C110.168 28.766 110.466 28.8655 110.821 28.8655ZM120.844 27.1055V22.7206H122.962V30.3569H120.928V28.9699H120.849C120.676 29.4173 120.39 29.7769 119.989 30.0487C119.591 30.3205 119.105 30.4564 118.532 30.4564C118.022 30.4564 117.572 30.3404 117.185 30.1084C116.797 29.8763 116.494 29.5466 116.275 29.119C116.059 28.6915 115.95 28.1794 115.947 27.5828V22.7206H118.065V27.2049C118.068 27.6557 118.189 28.012 118.428 28.2738C118.666 28.5357 118.986 28.6666 119.387 28.6666C119.642 28.6666 119.881 28.6086 120.103 28.4926C120.325 28.3733 120.504 28.1976 120.64 27.9656C120.779 27.7336 120.847 27.4469 120.844 27.1055ZM124.656 30.3569V22.7206H126.709V24.053H126.789C126.928 23.579 127.161 23.221 127.49 22.9791C127.818 22.7338 128.195 22.6112 128.623 22.6112C128.729 22.6112 128.843 22.6178 128.966 22.6311C129.089 22.6443 129.196 22.6626 129.289 22.6858V24.565C129.19 24.5352 129.052 24.5087 128.877 24.4855C128.701 24.4623 128.54 24.4507 128.394 24.4507C128.083 24.4507 127.804 24.5186 127.559 24.6545C127.317 24.7871 127.125 24.9727 126.982 25.2113C126.843 25.45 126.774 25.7251 126.774 26.0366V30.3569H124.656ZM133.664 30.3569V20.1751H137.681C138.454 20.1751 139.111 20.3226 139.655 20.6176C140.199 20.9093 140.613 21.3153 140.898 21.8356C141.186 22.3527 141.33 22.9493 141.33 23.6254C141.33 24.3015 141.185 24.8981 140.893 25.4152C140.601 25.9322 140.179 26.3349 139.625 26.6233C139.075 26.9116 138.409 27.0558 137.627 27.0558H135.066V25.3307H137.279C137.693 25.3307 138.034 25.2594 138.303 25.1169C138.575 24.971 138.777 24.7705 138.909 24.5153C139.045 24.2568 139.113 23.9602 139.113 23.6254C139.113 23.2873 139.045 22.9923 138.909 22.7405C138.777 22.4852 138.575 22.288 138.303 22.1488C138.031 22.0063 137.686 21.9351 137.269 21.9351H135.817V30.3569H133.664ZM146.016 30.5061C145.244 30.5061 144.576 30.342 144.013 30.0139C143.452 29.6825 143.02 29.2218 142.715 28.6318C142.41 28.0385 142.258 27.3508 142.258 26.5686C142.258 25.7798 142.41 25.0904 142.715 24.5004C143.02 23.9071 143.452 23.4464 144.013 23.1183C144.576 22.7869 145.244 22.6211 146.016 22.6211C146.788 22.6211 147.455 22.7869 148.015 23.1183C148.578 23.4464 149.012 23.9071 149.317 24.5004C149.622 25.0904 149.775 25.7798 149.775 26.5686C149.775 27.3508 149.622 28.0385 149.317 28.6318C149.012 29.2218 148.578 29.6825 148.015 30.0139C147.455 30.342 146.788 30.5061 146.016 30.5061ZM146.026 28.8655C146.377 28.8655 146.671 28.766 146.906 28.5672C147.141 28.365 147.319 28.0899 147.438 27.7419C147.561 27.3939 147.622 26.9978 147.622 26.5537C147.622 26.1095 147.561 25.7135 147.438 25.3655C147.319 25.0174 147.141 24.7424 146.906 24.5402C146.671 24.338 146.377 24.2369 146.026 24.2369C145.671 24.2369 145.373 24.338 145.131 24.5402C144.893 24.7424 144.712 25.0174 144.589 25.3655C144.47 25.7135 144.41 26.1095 144.41 26.5537C144.41 26.9978 144.47 27.3939 144.589 27.7419C144.712 28.0899 144.893 28.365 145.131 28.5672C145.373 28.766 145.671 28.8655 146.026 28.8655ZM157.506 24.8981L155.567 25.0174C155.533 24.8517 155.462 24.7026 155.353 24.57C155.243 24.4341 155.099 24.3264 154.92 24.2468C154.745 24.164 154.534 24.1226 154.289 24.1226C153.961 24.1226 153.684 24.1922 153.459 24.3314C153.233 24.4673 153.121 24.6495 153.121 24.8782C153.121 25.0605 153.193 25.2147 153.339 25.3406C153.485 25.4665 153.735 25.5676 154.09 25.6439L155.472 25.9223C156.215 26.0747 156.768 26.32 157.133 26.6581C157.497 26.9961 157.68 27.4403 157.68 27.9905C157.68 28.4909 157.532 28.9301 157.237 29.3079C156.945 29.6858 156.544 29.9807 156.034 30.1929C155.527 30.4017 154.942 30.5061 154.279 30.5061C153.268 30.5061 152.463 30.2956 151.863 29.8747C151.266 29.4504 150.916 28.8737 150.814 28.1446L152.897 28.0352C152.96 28.3434 153.112 28.5788 153.354 28.7412C153.596 28.9003 153.906 28.9798 154.284 28.9798C154.655 28.9798 154.953 28.9085 155.179 28.766C155.407 28.6202 155.523 28.4329 155.527 28.2042C155.523 28.012 155.442 27.8546 155.283 27.7319C155.124 27.606 154.879 27.5099 154.547 27.4436L153.225 27.1801C152.479 27.0309 151.924 26.7724 151.559 26.4045C151.198 26.0366 151.018 25.5676 151.018 24.9976C151.018 24.507 151.15 24.0844 151.415 23.7298C151.684 23.3752 152.06 23.1017 152.544 22.9095C153.031 22.7173 153.601 22.6211 154.254 22.6211C155.219 22.6211 155.978 22.825 156.531 23.2326C157.088 23.6403 157.413 24.1955 157.506 24.8981ZM163.075 22.7206V24.3115H158.476V22.7206H163.075ZM159.52 20.891H161.638V28.0103C161.638 28.2059 161.668 28.3584 161.728 28.4677C161.787 28.5738 161.87 28.6484 161.976 28.6915C162.086 28.7345 162.212 28.7561 162.354 28.7561C162.453 28.7561 162.553 28.7478 162.652 28.7312C162.752 28.7113 162.828 28.6964 162.881 28.6865L163.214 30.2625C163.108 30.2956 162.959 30.3337 162.767 30.3768C162.574 30.4232 162.341 30.4514 162.066 30.4613C161.555 30.4812 161.108 30.4133 160.723 30.2575C160.342 30.1017 160.046 29.8598 159.833 29.5316C159.621 29.2035 159.517 28.7892 159.52 28.2888V20.891ZM170.225 20.1751L170.031 27.3044H168.212L168.013 20.1751H170.225ZM169.122 30.4862C168.794 30.4862 168.512 30.3702 168.276 30.1382C168.041 29.9029 167.925 29.6211 167.928 29.293C167.925 28.9682 168.041 28.6898 168.276 28.4578C168.512 28.2258 168.794 28.1098 169.122 28.1098C169.436 28.1098 169.713 28.2258 169.952 28.4578C170.191 28.6898 170.311 28.9682 170.315 29.293C170.311 29.5118 170.253 29.7123 170.141 29.8946C170.031 30.0736 169.887 30.2177 169.708 30.3271C169.529 30.4332 169.334 30.4862 169.122 30.4862Z" fill="white"/>
<rect x="221" y="21" width="93" height="28" rx="3" fill="#023F74"/>
<path d="M243.847 39V31.7273H246.51C247.026 31.7273 247.454 31.8125 247.792 31.983C248.131 32.151 248.384 32.3795 248.552 32.6683C248.72 32.9548 248.804 33.2779 248.804 33.6378C248.804 33.9408 248.749 34.1965 248.637 34.4048C248.526 34.6108 248.377 34.7765 248.19 34.902C248.005 35.0251 247.802 35.1151 247.579 35.1719V35.2429C247.821 35.2547 248.056 35.3329 248.286 35.4773C248.518 35.6193 248.71 35.8217 248.861 36.0845C249.013 36.3473 249.088 36.6669 249.088 37.0433C249.088 37.415 249.001 37.7488 248.826 38.0447C248.653 38.3383 248.385 38.5715 248.023 38.7443C247.661 38.9148 247.198 39 246.634 39H243.847ZM244.944 38.0589H246.528C247.054 38.0589 247.43 37.9571 247.657 37.7536C247.884 37.55 247.998 37.2955 247.998 36.9901C247.998 36.7604 247.94 36.5497 247.824 36.358C247.708 36.1662 247.542 36.0135 247.327 35.8999C247.114 35.7862 246.861 35.7294 246.567 35.7294H244.944V38.0589ZM244.944 34.8736H246.414C246.661 34.8736 246.882 34.8262 247.078 34.7315C247.277 34.6368 247.435 34.5043 247.551 34.3338C247.669 34.161 247.728 33.9574 247.728 33.723C247.728 33.4223 247.623 33.1702 247.412 32.9666C247.201 32.763 246.878 32.6612 246.443 32.6612H244.944V34.8736ZM252.602 39.1101C252.091 39.1101 251.645 38.9929 251.263 38.7585C250.882 38.5241 250.586 38.1963 250.376 37.7749C250.165 37.3535 250.06 36.861 250.06 36.2976C250.06 35.7318 250.165 35.237 250.376 34.8132C250.586 34.3894 250.882 34.0604 251.263 33.826C251.645 33.5916 252.091 33.4744 252.602 33.4744C253.114 33.4744 253.56 33.5916 253.941 33.826C254.322 34.0604 254.618 34.3894 254.829 34.8132C255.039 35.237 255.145 35.7318 255.145 36.2976C255.145 36.861 255.039 37.3535 254.829 37.7749C254.618 38.1963 254.322 38.5241 253.941 38.7585C253.56 38.9929 253.114 39.1101 252.602 39.1101ZM252.606 38.2188C252.937 38.2188 253.212 38.1312 253.43 37.956C253.647 37.7808 253.808 37.5476 253.913 37.2564C254.019 36.9652 254.072 36.6444 254.072 36.294C254.072 35.946 254.019 35.6264 253.913 35.3352C253.808 35.0417 253.647 34.8061 253.43 34.6286C253.212 34.451 252.937 34.3622 252.606 34.3622C252.272 34.3622 251.995 34.451 251.775 34.6286C251.557 34.8061 251.395 35.0417 251.288 35.3352C251.184 35.6264 251.132 35.946 251.132 36.294C251.132 36.6444 251.184 36.9652 251.288 37.2564C251.395 37.5476 251.557 37.7808 251.775 37.956C251.995 38.1312 252.272 38.2188 252.606 38.2188ZM258.628 39.1101C258.116 39.1101 257.67 38.9929 257.289 38.7585C256.908 38.5241 256.612 38.1963 256.401 37.7749C256.19 37.3535 256.085 36.861 256.085 36.2976C256.085 35.7318 256.19 35.237 256.401 34.8132C256.612 34.3894 256.908 34.0604 257.289 33.826C257.67 33.5916 258.116 33.4744 258.628 33.4744C259.139 33.4744 259.585 33.5916 259.966 33.826C260.348 34.0604 260.643 34.3894 260.854 34.8132C261.065 35.237 261.17 35.7318 261.17 36.2976C261.17 36.861 261.065 37.3535 260.854 37.7749C260.643 38.1963 260.348 38.5241 259.966 38.7585C259.585 38.9929 259.139 39.1101 258.628 39.1101ZM258.631 38.2188C258.963 38.2188 259.237 38.1312 259.455 37.956C259.673 37.7808 259.834 37.5476 259.938 37.2564C260.044 36.9652 260.098 36.6444 260.098 36.294C260.098 35.946 260.044 35.6264 259.938 35.3352C259.834 35.0417 259.673 34.8061 259.455 34.6286C259.237 34.451 258.963 34.3622 258.631 34.3622C258.297 34.3622 258.02 34.451 257.8 34.6286C257.582 34.8061 257.42 35.0417 257.314 35.3352C257.209 35.6264 257.157 35.946 257.157 36.294C257.157 36.6444 257.209 36.9652 257.314 37.2564C257.42 37.5476 257.582 37.7808 257.8 37.956C258.02 38.1312 258.297 38.2188 258.631 38.2188ZM266.443 34.8771L265.48 35.0476C265.44 34.9245 265.376 34.8073 265.289 34.696C265.203 34.5848 265.087 34.4936 264.941 34.4226C264.794 34.3516 264.61 34.3161 264.39 34.3161C264.09 34.3161 263.839 34.3835 263.637 34.5185C263.436 34.651 263.335 34.8227 263.335 35.0334C263.335 35.2157 263.403 35.3625 263.538 35.4737C263.673 35.585 263.891 35.6761 264.191 35.7472L265.058 35.946C265.56 36.062 265.934 36.2408 266.18 36.4822C266.426 36.7237 266.549 37.0374 266.549 37.4233C266.549 37.75 266.455 38.0412 266.265 38.2969C266.078 38.5502 265.817 38.7491 265.48 38.8935C265.147 39.0379 264.759 39.1101 264.319 39.1101C263.708 39.1101 263.21 38.9799 262.824 38.7195C262.438 38.4567 262.201 38.0838 262.114 37.6009L263.14 37.4446C263.204 37.7121 263.335 37.9145 263.534 38.0518C263.733 38.1868 263.992 38.2543 264.312 38.2543C264.66 38.2543 264.938 38.1821 265.147 38.0376C265.355 37.8909 265.459 37.7121 265.459 37.5014C265.459 37.331 265.395 37.1877 265.267 37.0717C265.142 36.9557 264.949 36.8681 264.688 36.8089L263.765 36.6065C263.256 36.4905 262.88 36.3059 262.636 36.0526C262.394 35.7992 262.274 35.4785 262.274 35.0902C262.274 34.7682 262.364 34.4865 262.544 34.245C262.724 34.0036 262.972 33.8153 263.289 33.6804C263.607 33.5431 263.97 33.4744 264.38 33.4744C264.969 33.4744 265.433 33.6023 265.772 33.858C266.11 34.1113 266.334 34.451 266.443 34.8771ZM270.263 33.5455V34.3977H267.283V33.5455H270.263ZM268.082 32.2386H269.144V37.3984C269.144 37.6044 269.175 37.7595 269.237 37.8636C269.298 37.9654 269.377 38.0353 269.475 38.0732C269.574 38.1087 269.682 38.1264 269.798 38.1264C269.883 38.1264 269.957 38.1205 270.021 38.1087C270.085 38.0968 270.135 38.0874 270.171 38.0803L270.362 38.9574C270.301 38.9811 270.213 39.0047 270.1 39.0284C269.986 39.0545 269.844 39.0687 269.673 39.071C269.394 39.0758 269.134 39.026 268.892 38.9219C268.651 38.8177 268.455 38.6567 268.306 38.4389C268.157 38.2211 268.082 37.9477 268.082 37.6186V32.2386ZM280.039 31.7273V39H279.031L275.334 33.6662H275.266V39H274.169V31.7273H275.185L278.885 37.0682H278.953V31.7273H280.039ZM283.852 39.1101C283.341 39.1101 282.895 38.9929 282.513 38.7585C282.132 38.5241 281.836 38.1963 281.626 37.7749C281.415 37.3535 281.31 36.861 281.31 36.2976C281.31 35.7318 281.415 35.237 281.626 34.8132C281.836 34.3894 282.132 34.0604 282.513 33.826C282.895 33.5916 283.341 33.4744 283.852 33.4744C284.364 33.4744 284.81 33.5916 285.191 33.826C285.572 34.0604 285.868 34.3894 286.079 34.8132C286.289 35.237 286.395 35.7318 286.395 36.2976C286.395 36.861 286.289 37.3535 286.079 37.7749C285.868 38.1963 285.572 38.5241 285.191 38.7585C284.81 38.9929 284.364 39.1101 283.852 39.1101ZM283.856 38.2188C284.187 38.2188 284.462 38.1312 284.68 37.956C284.897 37.7808 285.058 37.5476 285.163 37.2564C285.269 36.9652 285.322 36.6444 285.322 36.294C285.322 35.946 285.269 35.6264 285.163 35.3352C285.058 35.0417 284.897 34.8061 284.68 34.6286C284.462 34.451 284.187 34.3622 283.856 34.3622C283.522 34.3622 283.245 34.451 283.025 34.6286C282.807 34.8061 282.645 35.0417 282.538 35.3352C282.434 35.6264 282.382 35.946 282.382 36.294C282.382 36.6444 282.434 36.9652 282.538 37.2564C282.645 37.5476 282.807 37.7808 283.025 37.956C283.245 38.1312 283.522 38.2188 283.856 38.2188ZM288.597 39L286.991 33.5455H288.089L289.158 37.5511H289.211L290.283 33.5455H291.381L292.446 37.5334H292.499L293.561 33.5455H294.658L293.057 39H291.974L290.866 35.0618H290.784L289.676 39H288.597Z" fill="white"/>
<path d="M58.1392 40.5455V41.2557H55.3125V40.5455H58.1392ZM56.1364 39.2386H56.9744V44.4375C56.9744 44.6742 57.0088 44.8518 57.0774 44.9702C57.1484 45.0862 57.2384 45.1643 57.3473 45.2045C57.4586 45.2424 57.5758 45.2614 57.6989 45.2614C57.7912 45.2614 57.867 45.2566 57.9261 45.2472C57.9853 45.2353 58.0327 45.2259 58.0682 45.2188L58.2386 45.9716C58.1818 45.9929 58.1025 46.0142 58.0007 46.0355C57.8989 46.0592 57.7699 46.071 57.6136 46.071C57.3769 46.071 57.1449 46.0201 56.9176 45.9183C56.6927 45.8165 56.5057 45.6615 56.3565 45.4531C56.2098 45.2448 56.1364 44.982 56.1364 44.6648V39.2386ZM61.5572 46.1136C61.0647 46.1136 60.6327 45.9964 60.261 45.7621C59.8917 45.5277 59.6029 45.1998 59.3945 44.7784C59.1886 44.357 59.0856 43.8646 59.0856 43.3011C59.0856 42.733 59.1886 42.237 59.3945 41.8132C59.6029 41.3894 59.8917 41.0604 60.261 40.826C60.6327 40.5916 61.0647 40.4744 61.5572 40.4744C62.0496 40.4744 62.4805 40.5916 62.8498 40.826C63.2215 41.0604 63.5103 41.3894 63.7163 41.8132C63.9246 42.237 64.0288 42.733 64.0288 43.3011C64.0288 43.8646 63.9246 44.357 63.7163 44.7784C63.5103 45.1998 63.2215 45.5277 62.8498 45.7621C62.4805 45.9964 62.0496 46.1136 61.5572 46.1136ZM61.5572 45.3608C61.9312 45.3608 62.239 45.2649 62.4805 45.0732C62.7219 44.8814 62.9007 44.6293 63.0167 44.3168C63.1327 44.0043 63.1907 43.6657 63.1907 43.3011C63.1907 42.9366 63.1327 42.5968 63.0167 42.282C62.9007 41.9671 62.7219 41.7126 62.4805 41.5185C62.239 41.3243 61.9312 41.2273 61.5572 41.2273C61.1831 41.2273 60.8754 41.3243 60.6339 41.5185C60.3924 41.7126 60.2137 41.9671 60.0977 42.282C59.9817 42.5968 59.9237 42.9366 59.9237 43.3011C59.9237 43.6657 59.9817 44.0043 60.0977 44.3168C60.2137 44.6293 60.3924 44.8814 60.6339 45.0732C60.8754 45.2649 61.1831 45.3608 61.5572 45.3608ZM68.1206 46V40.5455H68.9302V41.3693H68.987C69.0865 41.0994 69.2664 40.8804 69.5268 40.7124C69.7872 40.5443 70.0808 40.4602 70.4075 40.4602C70.469 40.4602 70.546 40.4614 70.6383 40.4638C70.7306 40.4661 70.8005 40.4697 70.8478 40.4744V41.3267C70.8194 41.3196 70.7543 41.3089 70.6525 41.2947C70.5531 41.2782 70.4477 41.2699 70.3365 41.2699C70.0713 41.2699 69.8346 41.3255 69.6262 41.4368C69.4203 41.5457 69.2569 41.6972 69.1362 41.8913C69.0178 42.0831 68.9586 42.3021 68.9586 42.5483V46H68.1206ZM73.9622 46.1136C73.4366 46.1136 72.9833 45.9976 72.6021 45.7656C72.2233 45.5312 71.9309 45.2045 71.725 44.7855C71.5214 44.3641 71.4196 43.8741 71.4196 43.3153C71.4196 42.7566 71.5214 42.2642 71.725 41.8381C71.9309 41.4096 72.2174 41.0758 72.5843 40.8366C72.9537 40.5952 73.3845 40.4744 73.877 40.4744C74.161 40.4744 74.4416 40.5218 74.7186 40.6165C74.9956 40.7112 75.2477 40.8651 75.475 41.0781C75.7022 41.2888 75.8833 41.5682 76.0183 41.9162C76.1532 42.2642 76.2207 42.6927 76.2207 43.2017V43.5568H72.0162V42.8324H75.3684C75.3684 42.5246 75.3069 42.25 75.1838 42.0085C75.063 41.767 74.8902 41.5765 74.6653 41.4368C74.4428 41.2971 74.18 41.2273 73.877 41.2273C73.5431 41.2273 73.2543 41.3101 73.0105 41.4759C72.769 41.6392 72.5832 41.8523 72.4529 42.1151C72.3227 42.3778 72.2576 42.6596 72.2576 42.9602V43.4432C72.2576 43.8551 72.3287 44.2043 72.4707 44.4908C72.6151 44.7749 72.8152 44.9915 73.0708 45.1406C73.3265 45.2874 73.6236 45.3608 73.9622 45.3608C74.1824 45.3608 74.3812 45.33 74.5588 45.2685C74.7387 45.2045 74.8938 45.1098 75.024 44.9844C75.1542 44.8565 75.2548 44.6979 75.3258 44.5085L76.1355 44.7358C76.0502 45.0104 75.907 45.2519 75.7058 45.4602C75.5046 45.6662 75.256 45.8272 74.96 45.9432C74.6641 46.0568 74.3315 46.1136 73.9622 46.1136ZM79.1007 46.1278C78.755 46.1278 78.4413 46.0627 78.1596 45.9325C77.8779 45.8 77.6542 45.6094 77.4885 45.3608C77.3227 45.1098 77.2399 44.8068 77.2399 44.4517C77.2399 44.1392 77.3014 43.8859 77.4245 43.6918C77.5476 43.4953 77.7122 43.3414 77.9181 43.2301C78.1241 43.1188 78.3514 43.036 78.6 42.9815C78.8509 42.9247 79.103 42.8797 79.3564 42.8466C79.6878 42.804 79.9565 42.772 80.1625 42.7507C80.3708 42.727 80.5223 42.688 80.617 42.6335C80.7141 42.5791 80.7626 42.4844 80.7626 42.3494V42.321C80.7626 41.9706 80.6667 41.6984 80.475 41.5043C80.2856 41.3101 79.9979 41.2131 79.612 41.2131C79.2119 41.2131 78.8983 41.3007 78.671 41.4759C78.4437 41.651 78.2839 41.8381 78.1916 42.0369L77.3961 41.7528C77.5382 41.4214 77.7276 41.1634 77.9643 40.9787C78.2034 40.7917 78.4638 40.6615 78.7456 40.5881C79.0297 40.5123 79.309 40.4744 79.5836 40.4744C79.7588 40.4744 79.96 40.4957 80.1873 40.5384C80.417 40.5786 80.6383 40.6626 80.8514 40.7905C81.0668 40.9183 81.2456 41.1113 81.3876 41.3693C81.5297 41.6274 81.6007 41.973 81.6007 42.4062V46H80.7626V45.2614H80.72C80.6632 45.3797 80.5685 45.5064 80.4359 45.6413C80.3033 45.7763 80.127 45.8911 79.9068 45.9858C79.6866 46.0805 79.4179 46.1278 79.1007 46.1278ZM79.2285 45.375C79.56 45.375 79.8393 45.3099 80.0666 45.1797C80.2962 45.0495 80.469 44.8814 80.585 44.6754C80.7034 44.4695 80.7626 44.2528 80.7626 44.0256V43.2585C80.7271 43.3011 80.649 43.3402 80.5282 43.3757C80.4099 43.4089 80.2725 43.4384 80.1163 43.4645C79.9624 43.4882 79.8121 43.5095 79.6653 43.5284C79.5209 43.545 79.4037 43.5592 79.3137 43.571C79.0959 43.5994 78.8923 43.6456 78.7029 43.7095C78.5159 43.7711 78.3644 43.8646 78.2484 43.9901C78.1348 44.1132 78.0779 44.2812 78.0779 44.4943C78.0779 44.7855 78.1857 45.0057 78.4011 45.1548C78.6189 45.3016 78.8947 45.375 79.2285 45.375ZM85.3462 46.1136C84.8349 46.1136 84.3945 45.9929 84.0252 45.7514C83.6559 45.5099 83.3718 45.1773 83.1729 44.7536C82.9741 44.3298 82.8746 43.8456 82.8746 43.3011C82.8746 42.7472 82.9764 42.2583 83.18 41.8345C83.386 41.4084 83.6725 41.0758 84.0394 40.8366C84.4087 40.5952 84.8396 40.4744 85.332 40.4744C85.7156 40.4744 86.0612 40.5455 86.369 40.6875C86.6767 40.8295 86.9289 41.0284 87.1254 41.2841C87.3219 41.5398 87.4438 41.8381 87.4911 42.179H86.6531C86.5891 41.9304 86.4471 41.7102 86.2269 41.5185C86.0091 41.3243 85.7156 41.2273 85.3462 41.2273C85.0195 41.2273 84.7331 41.3125 84.4869 41.483C84.243 41.651 84.0524 41.889 83.9151 42.1967C83.7802 42.5021 83.7127 42.8608 83.7127 43.2727C83.7127 43.6941 83.779 44.0611 83.9116 44.3736C84.0465 44.6861 84.2359 44.9287 84.4798 45.1016C84.726 45.2744 85.0148 45.3608 85.3462 45.3608C85.564 45.3608 85.7617 45.3229 85.9393 45.2472C86.1168 45.1714 86.2672 45.0625 86.3903 44.9205C86.5134 44.7784 86.601 44.608 86.6531 44.4091H87.4911C87.4438 44.7311 87.3266 45.0211 87.1396 45.2791C86.9549 45.5348 86.7099 45.7384 86.4045 45.8899C86.1014 46.0391 85.7487 46.1136 85.3462 46.1136ZM89.5543 42.7188V46H88.7163V38.7273H89.5543V41.3977H89.6254C89.7532 41.116 89.945 40.8923 90.2006 40.7266C90.4587 40.5585 90.802 40.4744 91.2305 40.4744C91.6022 40.4744 91.9277 40.549 92.207 40.6982C92.4864 40.8449 92.703 41.071 92.8569 41.3764C93.0131 41.6795 93.0913 42.0653 93.0913 42.5341V46H92.2532V42.5909C92.2532 42.1577 92.1407 41.8227 91.9158 41.5859C91.6933 41.3468 91.3844 41.2273 90.989 41.2273C90.7144 41.2273 90.4682 41.2853 90.2504 41.4013C90.0349 41.5173 89.8645 41.6866 89.739 41.9091C89.6159 42.1316 89.5543 42.4015 89.5543 42.7188ZM97.437 46V40.5455H98.2466V41.3977H98.3176C98.4313 41.1065 98.6148 40.8804 98.8681 40.7195C99.1214 40.5561 99.4256 40.4744 99.7807 40.4744C100.141 40.4744 100.44 40.5561 100.679 40.7195C100.921 40.8804 101.109 41.1065 101.244 41.3977H101.301C101.44 41.116 101.65 40.8923 101.929 40.7266C102.209 40.5585 102.544 40.4744 102.934 40.4744C103.422 40.4744 103.821 40.6271 104.131 40.9325C104.441 41.2356 104.596 41.7079 104.596 42.3494V46H103.758V42.3494C103.758 41.947 103.648 41.6593 103.428 41.4865C103.208 41.3137 102.948 41.2273 102.65 41.2273C102.267 41.2273 101.969 41.3433 101.759 41.5753C101.548 41.8049 101.443 42.0961 101.443 42.4489V46H100.59V42.2642C100.59 41.9541 100.49 41.7043 100.289 41.5149C100.087 41.3232 99.8281 41.2273 99.5108 41.2273C99.293 41.2273 99.0894 41.2853 98.9 41.4013C98.713 41.5173 98.5615 41.6783 98.4455 41.8842C98.3319 42.0878 98.275 42.3234 98.275 42.5909V46H97.437ZM108.344 46.1136C107.852 46.1136 107.42 45.9964 107.048 45.7621C106.679 45.5277 106.39 45.1998 106.182 44.7784C105.976 44.357 105.873 43.8646 105.873 43.3011C105.873 42.733 105.976 42.237 106.182 41.8132C106.39 41.3894 106.679 41.0604 107.048 40.826C107.42 40.5916 107.852 40.4744 108.344 40.4744C108.837 40.4744 109.268 40.5916 109.637 40.826C110.009 41.0604 110.297 41.3894 110.503 41.8132C110.712 42.237 110.816 42.733 110.816 43.3011C110.816 43.8646 110.712 44.357 110.503 44.7784C110.297 45.1998 110.009 45.5277 109.637 45.7621C109.268 45.9964 108.837 46.1136 108.344 46.1136ZM108.344 45.3608C108.718 45.3608 109.026 45.2649 109.268 45.0732C109.509 44.8814 109.688 44.6293 109.804 44.3168C109.92 44.0043 109.978 43.6657 109.978 43.3011C109.978 42.9366 109.92 42.5968 109.804 42.282C109.688 41.9671 109.509 41.7126 109.268 41.5185C109.026 41.3243 108.718 41.2273 108.344 41.2273C107.97 41.2273 107.662 41.3243 107.421 41.5185C107.18 41.7126 107.001 41.9671 106.885 42.282C106.769 42.5968 106.711 42.9366 106.711 43.3011C106.711 43.6657 106.769 44.0043 106.885 44.3168C107.001 44.6293 107.18 44.8814 107.421 45.0732C107.662 45.2649 107.97 45.3608 108.344 45.3608ZM112.095 46V40.5455H112.905V41.3693H112.962C113.061 41.0994 113.241 40.8804 113.501 40.7124C113.762 40.5443 114.055 40.4602 114.382 40.4602C114.444 40.4602 114.521 40.4614 114.613 40.4638C114.705 40.4661 114.775 40.4697 114.822 40.4744V41.3267C114.794 41.3196 114.729 41.3089 114.627 41.2947C114.528 41.2782 114.422 41.2699 114.311 41.2699C114.046 41.2699 113.809 41.3255 113.601 41.4368C113.395 41.5457 113.232 41.6972 113.111 41.8913C112.992 42.0831 112.933 42.3021 112.933 42.5483V46H112.095ZM117.937 46.1136C117.411 46.1136 116.958 45.9976 116.577 45.7656C116.198 45.5312 115.906 45.2045 115.7 44.7855C115.496 44.3641 115.394 43.8741 115.394 43.3153C115.394 42.7566 115.496 42.2642 115.7 41.8381C115.906 41.4096 116.192 41.0758 116.559 40.8366C116.928 40.5952 117.359 40.4744 117.852 40.4744C118.136 40.4744 118.416 40.5218 118.693 40.6165C118.97 40.7112 119.222 40.8651 119.45 41.0781C119.677 41.2888 119.858 41.5682 119.993 41.9162C120.128 42.2642 120.195 42.6927 120.195 43.2017V43.5568H115.991V42.8324H119.343C119.343 42.5246 119.281 42.25 119.158 42.0085C119.038 41.767 118.865 41.5765 118.64 41.4368C118.417 41.2971 118.155 41.2273 117.852 41.2273C117.518 41.2273 117.229 41.3101 116.985 41.4759C116.744 41.6392 116.558 41.8523 116.428 42.1151C116.297 42.3778 116.232 42.6596 116.232 42.9602V43.4432C116.232 43.8551 116.303 44.2043 116.445 44.4908C116.59 44.7749 116.79 44.9915 117.045 45.1406C117.301 45.2874 117.598 45.3608 117.937 45.3608C118.157 45.3608 118.356 45.33 118.533 45.2685C118.713 45.2045 118.868 45.1098 118.999 44.9844C119.129 44.8565 119.229 44.6979 119.3 44.5085L120.11 44.7358C120.025 45.0104 119.882 45.2519 119.68 45.4602C119.479 45.6662 119.231 45.8272 118.935 45.9432C118.639 46.0568 118.306 46.1136 117.937 46.1136ZM130.249 41H129.368C129.316 40.7467 129.225 40.5241 129.094 40.3324C128.967 40.1406 128.81 39.9796 128.626 39.8494C128.443 39.7169 128.241 39.6174 128.018 39.5511C127.796 39.4848 127.564 39.4517 127.322 39.4517C126.882 39.4517 126.483 39.563 126.126 39.7855C125.771 40.008 125.488 40.3359 125.277 40.7692C125.069 41.2024 124.964 41.7339 124.964 42.3636C124.964 42.9934 125.069 43.5249 125.277 43.9581C125.488 44.3913 125.771 44.7192 126.126 44.9418C126.483 45.1643 126.882 45.2756 127.322 45.2756C127.564 45.2756 127.796 45.2424 128.018 45.1761C128.241 45.1098 128.443 45.0116 128.626 44.8814C128.81 44.7488 128.967 44.5866 129.094 44.3949C129.225 44.2008 129.316 43.9782 129.368 43.7273H130.249C130.182 44.099 130.062 44.4316 129.886 44.7251C129.711 45.0187 129.493 45.2685 129.233 45.4744C128.973 45.678 128.68 45.8331 128.356 45.9396C128.034 46.0462 127.689 46.0994 127.322 46.0994C126.702 46.0994 126.151 45.9479 125.668 45.6449C125.185 45.3419 124.805 44.911 124.528 44.3523C124.251 43.7936 124.112 43.1307 124.112 42.3636C124.112 41.5966 124.251 40.9337 124.528 40.375C124.805 39.8163 125.185 39.3854 125.668 39.0824C126.151 38.7794 126.702 38.6278 127.322 38.6278C127.689 38.6278 128.034 38.6811 128.356 38.7876C128.68 38.8942 128.973 39.0504 129.233 39.2564C129.493 39.46 129.711 39.7086 129.886 40.0021C130.062 40.2933 130.182 40.6259 130.249 41ZM134.996 43.7699V40.5455H135.834V46H134.996V45.0767H134.939C134.811 45.3537 134.612 45.5893 134.342 45.7834C134.072 45.9751 133.731 46.071 133.319 46.071C132.979 46.071 132.675 45.9964 132.41 45.8473C132.145 45.6958 131.937 45.4685 131.785 45.1655C131.634 44.8601 131.558 44.4754 131.558 44.0114V40.5455H132.396V43.9545C132.396 44.3523 132.507 44.6695 132.73 44.9062C132.955 45.143 133.241 45.2614 133.589 45.2614C133.798 45.2614 134.01 45.2081 134.225 45.1016C134.443 44.995 134.625 44.8317 134.772 44.6115C134.921 44.3913 134.996 44.1108 134.996 43.7699ZM141.232 41.767L140.479 41.9801C140.432 41.8546 140.362 41.7327 140.27 41.6143C140.18 41.4936 140.057 41.3942 139.901 41.3161C139.744 41.2379 139.544 41.1989 139.3 41.1989C138.967 41.1989 138.688 41.2758 138.466 41.4297C138.246 41.5812 138.136 41.7741 138.136 42.0085C138.136 42.2169 138.211 42.3814 138.363 42.5021C138.514 42.6229 138.751 42.7235 139.073 42.804L139.883 43.0028C140.371 43.1212 140.734 43.3023 140.973 43.5462C141.212 43.7876 141.332 44.099 141.332 44.4801C141.332 44.7926 141.242 45.072 141.062 45.3182C140.884 45.5644 140.636 45.7585 140.316 45.9006C139.996 46.0426 139.625 46.1136 139.201 46.1136C138.645 46.1136 138.184 45.9929 137.82 45.7514C137.455 45.5099 137.224 45.1572 137.127 44.6932L137.923 44.4943C137.998 44.7879 138.142 45.008 138.352 45.1548C138.565 45.3016 138.844 45.375 139.187 45.375C139.577 45.375 139.888 45.2921 140.117 45.1264C140.349 44.9583 140.465 44.7571 140.465 44.5227C140.465 44.3333 140.399 44.1747 140.266 44.0469C140.134 43.9167 139.93 43.8196 139.656 43.7557L138.746 43.5426C138.247 43.4242 137.88 43.2408 137.646 42.9922C137.414 42.7412 137.298 42.4276 137.298 42.0511C137.298 41.7434 137.384 41.4711 137.557 41.2344C137.732 40.9976 137.97 40.8118 138.271 40.6768C138.574 40.5419 138.917 40.4744 139.3 40.4744C139.84 40.4744 140.264 40.5928 140.572 40.8295C140.882 41.0663 141.102 41.3788 141.232 41.767ZM144.965 40.5455V41.2557H142.139V40.5455H144.965ZM142.963 39.2386H143.801V44.4375C143.801 44.6742 143.835 44.8518 143.904 44.9702C143.975 45.0862 144.065 45.1643 144.173 45.2045C144.285 45.2424 144.402 45.2614 144.525 45.2614C144.617 45.2614 144.693 45.2566 144.752 45.2472C144.811 45.2353 144.859 45.2259 144.894 45.2188L145.065 45.9716C145.008 45.9929 144.929 46.0142 144.827 46.0355C144.725 46.0592 144.596 46.071 144.44 46.071C144.203 46.071 143.971 46.0201 143.744 45.9183C143.519 45.8165 143.332 45.6615 143.183 45.4531C143.036 45.2448 142.963 44.982 142.963 44.6648V39.2386ZM148.383 46.1136C147.891 46.1136 147.459 45.9964 147.087 45.7621C146.718 45.5277 146.429 45.1998 146.221 44.7784C146.015 44.357 145.912 43.8646 145.912 43.3011C145.912 42.733 146.015 42.237 146.221 41.8132C146.429 41.3894 146.718 41.0604 147.087 40.826C147.459 40.5916 147.891 40.4744 148.383 40.4744C148.876 40.4744 149.307 40.5916 149.676 40.826C150.048 41.0604 150.336 41.3894 150.542 41.8132C150.751 42.237 150.855 42.733 150.855 43.3011C150.855 43.8646 150.751 44.357 150.542 44.7784C150.336 45.1998 150.048 45.5277 149.676 45.7621C149.307 45.9964 148.876 46.1136 148.383 46.1136ZM148.383 45.3608C148.757 45.3608 149.065 45.2649 149.307 45.0732C149.548 44.8814 149.727 44.6293 149.843 44.3168C149.959 44.0043 150.017 43.6657 150.017 43.3011C150.017 42.9366 149.959 42.5968 149.843 42.282C149.727 41.9671 149.548 41.7126 149.307 41.5185C149.065 41.3243 148.757 41.2273 148.383 41.2273C148.009 41.2273 147.702 41.3243 147.46 41.5185C147.219 41.7126 147.04 41.9671 146.924 42.282C146.808 42.5968 146.75 42.9366 146.75 43.3011C146.75 43.6657 146.808 44.0043 146.924 44.3168C147.04 44.6293 147.219 44.8814 147.46 45.0732C147.702 45.2649 148.009 45.3608 148.383 45.3608ZM152.134 46V40.5455H152.944V41.3977H153.015C153.129 41.1065 153.312 40.8804 153.565 40.7195C153.819 40.5561 154.123 40.4744 154.478 40.4744C154.838 40.4744 155.137 40.5561 155.376 40.7195C155.618 40.8804 155.806 41.1065 155.941 41.3977H155.998C156.138 41.116 156.347 40.8923 156.626 40.7266C156.906 40.5585 157.241 40.4744 157.631 40.4744C158.119 40.4744 158.518 40.6271 158.828 40.9325C159.138 41.2356 159.293 41.7079 159.293 42.3494V46H158.455V42.3494C158.455 41.947 158.345 41.6593 158.125 41.4865C157.905 41.3137 157.646 41.2273 157.347 41.2273C156.964 41.2273 156.667 41.3433 156.456 41.5753C156.245 41.8049 156.14 42.0961 156.14 42.4489V46H155.288V42.2642C155.288 41.9541 155.187 41.7043 154.986 41.5149C154.785 41.3232 154.525 41.2273 154.208 41.2273C153.99 41.2273 153.787 41.2853 153.597 41.4013C153.41 41.5173 153.259 41.6783 153.143 41.8842C153.029 42.0878 152.972 42.3234 152.972 42.5909V46H152.134ZM163.113 46.1136C162.587 46.1136 162.134 45.9976 161.752 45.7656C161.374 45.5312 161.081 45.2045 160.875 44.7855C160.672 44.3641 160.57 43.8741 160.57 43.3153C160.57 42.7566 160.672 42.2642 160.875 41.8381C161.081 41.4096 161.368 41.0758 161.735 40.8366C162.104 40.5952 162.535 40.4744 163.027 40.4744C163.311 40.4744 163.592 40.5218 163.869 40.6165C164.146 40.7112 164.398 40.8651 164.625 41.0781C164.853 41.2888 165.034 41.5682 165.169 41.9162C165.304 42.2642 165.371 42.6927 165.371 43.2017V43.5568H161.167V42.8324H164.519C164.519 42.5246 164.457 42.25 164.334 42.0085C164.213 41.767 164.041 41.5765 163.816 41.4368C163.593 41.2971 163.33 41.2273 163.027 41.2273C162.694 41.2273 162.405 41.3101 162.161 41.4759C161.919 41.6392 161.734 41.8523 161.603 42.1151C161.473 42.3778 161.408 42.6596 161.408 42.9602V43.4432C161.408 43.8551 161.479 44.2043 161.621 44.4908C161.766 44.7749 161.966 44.9915 162.221 45.1406C162.477 45.2874 162.774 45.3608 163.113 45.3608C163.333 45.3608 163.532 45.33 163.709 45.2685C163.889 45.2045 164.044 45.1098 164.174 44.9844C164.305 44.8565 164.405 44.6979 164.476 44.5085L165.286 44.7358C165.201 45.0104 165.057 45.2519 164.856 45.4602C164.655 45.6662 164.406 45.8272 164.11 45.9432C163.815 46.0568 163.482 46.1136 163.113 46.1136ZM166.646 46V40.5455H167.456V41.3693H167.512C167.612 41.0994 167.792 40.8804 168.052 40.7124C168.313 40.5443 168.606 40.4602 168.933 40.4602C168.994 40.4602 169.071 40.4614 169.164 40.4638C169.256 40.4661 169.326 40.4697 169.373 40.4744V41.3267C169.345 41.3196 169.28 41.3089 169.178 41.2947C169.078 41.2782 168.973 41.2699 168.862 41.2699C168.597 41.2699 168.36 41.3255 168.152 41.4368C167.946 41.5457 167.782 41.6972 167.662 41.8913C167.543 42.0831 167.484 42.3021 167.484 42.5483V46H166.646ZM174.23 41.767L173.477 41.9801C173.43 41.8546 173.36 41.7327 173.268 41.6143C173.178 41.4936 173.055 41.3942 172.899 41.3161C172.742 41.2379 172.542 41.1989 172.298 41.1989C171.965 41.1989 171.686 41.2758 171.464 41.4297C171.244 41.5812 171.134 41.7741 171.134 42.0085C171.134 42.2169 171.209 42.3814 171.361 42.5021C171.512 42.6229 171.749 42.7235 172.071 42.804L172.881 43.0028C173.369 43.1212 173.732 43.3023 173.971 43.5462C174.21 43.7876 174.33 44.099 174.33 44.4801C174.33 44.7926 174.24 45.072 174.06 45.3182C173.882 45.5644 173.634 45.7585 173.314 45.9006C172.994 46.0426 172.623 46.1136 172.199 46.1136C171.643 46.1136 171.182 45.9929 170.818 45.7514C170.453 45.5099 170.222 45.1572 170.125 44.6932L170.921 44.4943C170.996 44.7879 171.14 45.008 171.35 45.1548C171.563 45.3016 171.842 45.375 172.185 45.375C172.575 45.375 172.886 45.2921 173.115 45.1264C173.347 44.9583 173.463 44.7571 173.463 44.5227C173.463 44.3333 173.397 44.1747 173.264 44.0469C173.132 43.9167 172.928 43.8196 172.654 43.7557L171.744 43.5426C171.245 43.4242 170.878 43.2408 170.644 42.9922C170.412 42.7412 170.296 42.4276 170.296 42.0511C170.296 41.7434 170.382 41.4711 170.555 41.2344C170.73 40.9976 170.968 40.8118 171.269 40.6768C171.572 40.5419 171.915 40.4744 172.298 40.4744C172.838 40.4744 173.262 40.5928 173.57 40.8295C173.88 41.0663 174.1 41.3788 174.23 41.767Z" fill="#E5E7EB"/>
<g clip-path="url(#clip1_2253_3001)">
<path d="M26.6639 29.4503C26.5498 29.2597 26.3377 29.1503 26.1161 29.1671L21.3546 29.5349C20.8726 29.5722 20.4432 29.8248 20.1765 30.2282L18.1782 33.2505C17.976 33.5564 17.9438 33.9392 18.0922 34.2745C18.2405 34.6098 18.5454 34.8434 18.9077 34.8996L22.7686 35.4976C22.7986 35.5022 22.8286 35.5045 22.8584 35.5045C23.0562 35.5045 23.2433 35.4042 23.352 35.2341L26.655 30.0669C26.7746 29.8796 26.778 29.6409 26.6639 29.4503Z" fill="#E45A6E"/>
<path d="M32.5497 35.336C32.3591 35.2219 32.1203 35.2254 31.9331 35.345L26.7659 38.648C26.5702 38.7731 26.4669 39.0019 26.5024 39.2314L27.1004 43.0923C27.1565 43.4547 27.3902 43.7595 27.7255 43.9079C27.865 43.9695 28.0126 44 28.1596 44C28.3659 44 28.5708 43.9399 28.7494 43.8218L31.7718 41.8235C32.1752 41.5569 32.4279 41.1274 32.465 40.6453L32.8329 35.8839C32.85 35.6624 32.7403 35.4502 32.5497 35.336Z" fill="#D82E44"/>
<path d="M25.5339 40.1045C25.7671 40.3377 26.0985 40.4468 26.4238 40.3924C31.1937 39.5948 34.9683 35.6455 36.4052 32.8672C38.0009 29.7823 38.06 26.5224 37.9766 24.9935C37.948 24.4696 37.5304 24.052 37.0065 24.0234C35.4776 23.94 32.2177 23.9991 29.1327 25.5948C26.3545 27.0317 22.4052 30.8063 21.6076 35.5762C21.5533 35.9015 21.6623 36.2329 21.8955 36.4661L25.5339 40.1045Z" fill="#F1F1FB"/>
<path d="M37.6773 24.3227L23.7147 38.2853L25.5339 40.1045C25.7671 40.3377 26.0985 40.4467 26.4238 40.3924C31.1937 39.5948 34.9683 35.6455 36.4052 32.8673C38.0009 29.7824 38.06 26.5224 37.9766 24.9935C37.9623 24.7316 37.8507 24.4962 37.6773 24.3227Z" fill="#D7D6FB"/>
<path d="M31.7003 33.228C30.95 33.228 30.2 32.9425 29.6287 32.3713C29.0754 31.818 28.7706 31.0822 28.7706 30.2997C28.7706 29.5172 29.0754 28.7814 29.6287 28.2281C30.771 27.0858 32.6296 27.0858 33.7719 28.2281C34.3252 28.7814 34.63 29.5172 34.63 30.2997C34.63 31.0822 34.3252 31.818 33.7719 32.3713C33.2008 32.9424 32.4504 33.2279 31.7003 33.228Z" fill="#466288"/>
<path d="M21.6076 35.5762C21.5533 35.9015 21.6623 36.2328 21.8955 36.466L25.5339 40.1045C25.7671 40.3377 26.0985 40.4467 26.4238 40.3923C27.4617 40.2188 28.4524 39.8959 29.3822 39.4684L22.5315 32.6178C22.1041 33.5476 21.7812 34.5383 21.6076 35.5762Z" fill="#466288"/>
<path d="M18.5978 40.4819C18.7477 40.4819 18.8977 40.4246 19.0121 40.3102L20.9251 38.3972C21.154 38.1684 21.154 37.7974 20.9251 37.5686C20.6963 37.3398 20.3254 37.3398 20.0965 37.5686L18.1835 39.4816C17.9547 39.7104 17.9547 40.0814 18.1835 40.3102C18.2979 40.4247 18.4479 40.4819 18.5978 40.4819Z" fill="#FDB43A"/>
<path d="M22.6784 39.3217C22.4496 39.0929 22.0786 39.0929 21.8498 39.3217L18.1719 42.9996C17.943 43.2284 17.943 43.5994 18.1719 43.8283C18.2863 43.9427 18.4362 43.9999 18.5862 43.9999C18.7362 43.9999 18.8861 43.9426 19.0005 43.8282L22.6784 40.1503C22.9072 39.9215 22.9072 39.5505 22.6784 39.3217Z" fill="#FDB43A"/>
<path d="M24.4314 41.0749C24.2026 40.8461 23.8316 40.8461 23.6028 41.0749L21.6898 42.9879C21.461 43.2167 21.461 43.5877 21.6898 43.8165C21.8042 43.9309 21.9542 43.9882 22.1041 43.9882C22.254 43.9882 22.404 43.9309 22.5184 43.8165L24.4314 41.9035C24.6602 41.6747 24.6602 41.3037 24.4314 41.0749Z" fill="#F57A21"/>
<path d="M18.1718 43.8283C18.2862 43.9427 18.4361 43.9999 18.5861 43.9999C18.736 43.9999 18.886 43.9427 19.0004 43.8282L22.6783 40.1503C22.9071 39.9216 22.9071 39.5505 22.6783 39.3217L18.1718 43.8283Z" fill="#F57A21"/>
<path d="M23.7147 38.2853L25.5339 40.1045C25.7671 40.3377 26.0985 40.4468 26.4238 40.3924C27.4617 40.2188 28.4524 39.8959 29.3822 39.4685L25.9569 36.0432L23.7147 38.2853Z" fill="#354A67"/>
<path d="M29.6287 32.3713C30.1999 32.9425 30.95 33.2281 31.7003 33.228C32.4504 33.2279 33.2008 32.9423 33.7719 32.3713C34.3252 31.8179 34.6299 31.0822 34.6299 30.2997C34.6299 29.5171 34.3252 28.7814 33.7719 28.2281L29.6287 32.3713Z" fill="#354A67"/>
<path d="M31.7003 28.5427C31.2502 28.5427 30.8 28.7141 30.4574 29.0567C30.1254 29.3887 29.9425 29.8301 29.9425 30.2997C29.9425 30.7692 30.1254 31.2106 30.4574 31.5426C31.1427 32.228 32.258 32.228 32.9433 31.5426C33.2753 31.2106 33.4582 30.7692 33.4582 30.2996C33.4582 29.8301 33.2753 29.3887 32.9433 29.0567C32.6006 28.7141 32.1505 28.5427 31.7003 28.5427Z" fill="#4BBEFD"/>
<path d="M32.9432 29.0568L30.4573 31.5427C31.1427 32.228 32.2579 32.2281 32.9432 31.5427C33.2752 31.2106 33.4581 30.7692 33.4581 30.2997C33.4581 29.8302 33.2753 29.3888 32.9432 29.0568Z" fill="#0590FB"/>
</g>
</g>
<defs>
<clipPath id="clip0_2253_3001">
<rect width="334" height="68" rx="8" fill="white"/>
</clipPath>
<clipPath id="clip1_2253_3001">
<rect width="20" height="20" fill="white" transform="translate(18 24)"/>
</clipPath>
</defs>
</svg>
