<svg width="50" height="50" viewBox="0 0 50 50" fill="none" xmlns="http://www.w3.org/2000/svg">
<circle cx="25" cy="25" r="25" fill="#E3D7FF"/>
<path d="M23.7452 8.96949C24.3734 8.7467 25.0744 8.74126 25.7139 8.95777L36.333 12.5212C37.5218 12.9182 38.3256 14.0103 38.3321 15.2341L38.4004 25.8591C38.4213 29.08 37.2468 32.2037 35.0967 34.6511C34.1077 35.7745 32.8395 36.7394 31.2207 37.6023L25.5118 40.6541C25.333 40.7481 25.1366 40.797 24.9385 40.7986C24.7405 40.8001 24.5424 40.7534 24.3653 40.6609L18.6036 37.6795C16.967 36.8307 15.6882 35.8799 14.6895 34.7722C12.5037 32.3498 11.2886 29.2402 11.2676 26.0144L11.2002 15.3972C11.1938 14.172 11.9829 13.0717 13.1651 12.6589L23.7452 8.96949Z" fill="#7F56D9"/>
<path d="M23.3838 28.9999C23.0671 29.0033 22.7505 28.8837 22.5064 28.6412L19.3682 25.5194C18.8817 25.0361 18.8768 24.249 19.3566 23.7591C19.8382 23.2693 20.6199 23.2643 21.1064 23.7475L23.3656 25.9926L28.8836 20.3699C29.3634 19.88 30.1468 19.8767 30.6333 20.3599C31.1181 20.8432 31.123 21.6303 30.6432 22.1202L24.2562 28.6296C24.0154 28.8754 23.7004 28.9983 23.3838 28.9999Z" fill="white"/>
</svg>
