<svg width="50" height="50" viewBox="0 0 50 50" fill="none" xmlns="http://www.w3.org/2000/svg">
<circle cx="25" cy="25" r="25" fill="#E3D7FF"/>
<path d="M23.7452 8.96949C24.3734 8.7467 25.0744 8.74126 25.7139 8.95777L36.333 12.5212C37.5218 12.9182 38.3256 14.0103 38.3321 15.2341L38.4004 25.8591C38.4213 29.08 37.2468 32.2037 35.0967 34.6511C34.1077 35.7745 32.8395 36.7394 31.2207 37.6023L25.5118 40.6541C25.333 40.7481 25.1366 40.797 24.9385 40.7986C24.7405 40.8001 24.5424 40.7534 24.3653 40.6609L18.6036 37.6795C16.967 36.8307 15.6882 35.8799 14.6895 34.7722C12.5037 32.3498 11.2886 29.2402 11.2676 26.0144L11.2002 15.3972C11.1938 14.172 11.9829 13.0717 13.1651 12.6589L23.7452 8.96949Z" fill="#7F56D9"/>
<path d="M32 25C32 23.4159 31.4627 21.8786 30.4759 20.6394C29.489 19.4002 28.1111 18.5323 26.5672 18.1777C25.0232 17.823 23.4047 18.0025 21.976 18.6869C20.5473 19.3712 19.393 20.5199 18.7017 21.9452C18.0104 23.3706 17.823 24.9882 18.1701 26.5338C18.5172 28.0795 19.3783 29.4617 20.6127 30.4545C21.8471 31.4474 23.3817 31.9922 24.9658 31.9999C26.5499 32.0076 28.0898 31.4778 29.3338 30.4971L28.4192 29.337C27.4378 30.1108 26.2228 30.5288 24.973 30.5227C23.7232 30.5166 22.5125 30.0868 21.5386 29.3034C20.5647 28.5201 19.8853 27.4296 19.6115 26.2101C19.3376 24.9907 19.4855 23.7144 20.0309 22.5899C20.5763 21.4654 21.487 20.5591 22.6142 20.0192C23.7414 19.4792 25.0183 19.3376 26.2364 19.6174C27.4545 19.8972 28.5417 20.5819 29.3203 21.5596C30.0988 22.5373 30.5228 23.7502 30.5228 25H32Z" fill="url(#paint0_linear_27_17)"/>
<defs>
<linearGradient id="paint0_linear_27_17" x1="25" y1="18" x2="25" y2="32" gradientUnits="userSpaceOnUse">
<stop stop-color="#E3D7FF"/>
<stop offset="1" stop-color="white"/>
</linearGradient>
</defs>
</svg>
