<svg width="173" height="248" viewBox="0 0 173 248" fill="none" xmlns="http://www.w3.org/2000/svg">
<path d="M86 43L46.9957 63.9089C41.1489 67.0432 37.5 73.1393 37.5 79.7732V157.999V247.499C23.4703 240.895 0 222.555 0 209V64.383C0 53.365 6.03954 43.2337 15.7315 37.9934L86 0V43Z" fill="url(#paint0_linear_1781_6021)"/>
<path d="M58.0108 150.207C63.5054 138.773 75.0686 131.5 87.755 131.5H134.5V170H48.5L58.0108 150.207Z" fill="url(#paint1_linear_1781_6021)"/>
<path d="M86 43L125.854 63.6249C131.165 66.3735 134.5 71.8546 134.5 77.8348V170C148.613 163.623 173 145.312 173 132.222V98.4211V63.4487C173 52.2562 166.77 41.9945 156.839 36.8314L86 0V43Z" fill="url(#paint2_linear_1781_6021)"/>
<defs>
<linearGradient id="paint0_linear_1781_6021" x1="45.8194" y1="9.85477e-08" x2="45.8194" y2="219.23" gradientUnits="userSpaceOnUse">
<stop stop-color="#6941C6"/>
<stop offset="1" stop-color="#CD77FA"/>
</linearGradient>
<linearGradient id="paint1_linear_1781_6021" x1="140.815" y1="147.25" x2="62.1803" y2="165.081" gradientUnits="userSpaceOnUse">
<stop stop-color="#6266FF"/>
<stop offset="1" stop-color="#35E3EC"/>
</linearGradient>
<linearGradient id="paint2_linear_1781_6021" x1="125.421" y1="1.9883" x2="152.311" y2="156.172" gradientUnits="userSpaceOnUse">
<stop stop-color="#7D4CD0"/>
<stop offset="1" stop-color="#6720D7"/>
</linearGradient>
</defs>
</svg>
