<svg width="24" height="24" viewBox="0 0 24 24" fill="none" xmlns="http://www.w3.org/2000/svg">
<g clip-path="url(#clip0_2132_5906)">
<path d="M4.87761 6.7793C4.26412 6.7793 3.76489 7.27853 3.76489 7.89202V8.99396C3.76489 9.15984 3.89902 9.29397 4.0649 9.29397H5.69033C5.85621 9.29397 5.99034 9.15984 5.99034 8.99396V7.89202C5.99034 7.27853 5.49111 6.7793 4.87761 6.7793ZM5.39032 8.69395H4.36491V7.89202C4.36491 7.60941 4.59501 7.37931 4.87761 7.37931C5.16022 7.37931 5.39032 7.60941 5.39032 7.89202V8.69395Z" fill="#6941C6"/>
<path d="M8.10271 6.7793C7.48922 6.7793 6.98999 7.27853 6.98999 7.89202V8.99396C6.98999 9.15984 7.12411 9.29397 7.29 9.29397H8.91543C9.08131 9.29397 9.21544 9.15984 9.21544 8.99396V7.89202C9.21544 7.27853 8.7162 6.7793 8.10271 6.7793ZM8.61542 8.69395H7.59001V7.89202C7.59001 7.60941 7.82011 7.37931 8.10271 7.37931C8.38532 7.37931 8.61542 7.60941 8.61542 7.89202V8.69395Z" fill="#6941C6"/>
<path d="M4.86321 10.1689C4.24972 10.1689 3.75049 10.6682 3.75049 11.282V12.3836C3.75049 12.5495 3.88461 12.6836 4.0505 12.6836H5.67593C5.84181 12.6836 5.97593 12.5495 5.97593 12.3836V11.282C5.97593 10.6682 5.47676 10.1689 4.86321 10.1689ZM5.37592 12.0836H4.3505V11.282C4.3505 10.9991 4.58061 10.769 4.86321 10.769C5.14582 10.769 5.37592 10.9991 5.37592 11.282V12.0836Z" fill="#6941C6"/>
<path d="M8.08806 10.1689C7.47457 10.1689 6.97534 10.6682 6.97534 11.282V12.3836C6.97534 12.5495 7.10947 12.6836 7.27535 12.6836H8.90078C9.06666 12.6836 9.20079 12.5495 9.20079 12.3836V11.282C9.20079 10.6682 8.70161 10.1689 8.08806 10.1689ZM8.60077 12.0836H7.57536V11.282C7.57536 10.9991 7.80546 10.769 8.08806 10.769C8.37067 10.769 8.60077 10.9991 8.60077 11.282V12.0836Z" fill="#6941C6"/>
<path d="M4.86321 13.5439C4.24972 13.5439 3.75049 14.0432 3.75049 14.657V15.7586C3.75049 15.9245 3.88461 16.0586 4.0505 16.0586H5.67593C5.84181 16.0586 5.97593 15.9245 5.97593 15.7586V14.657C5.97593 14.0432 5.47676 13.5439 4.86321 13.5439ZM5.37592 15.4586H4.3505V14.657C4.3505 14.3741 4.58061 14.144 4.86321 14.144C5.14582 14.144 5.37592 14.3741 5.37592 14.657V15.4586Z" fill="#6941C6"/>
<path d="M8.08806 13.5439C7.47457 13.5439 6.97534 14.0432 6.97534 14.657V15.7586C6.97534 15.9245 7.10947 16.0586 7.27535 16.0586H8.90078C9.06666 16.0586 9.20079 15.9245 9.20079 15.7586V14.657C9.20079 14.0432 8.70161 13.5439 8.08806 13.5439ZM8.60077 15.4586H7.57536V14.657C7.57536 14.3741 7.80546 14.144 8.08806 14.144C8.37067 14.144 8.60077 14.3741 8.60077 14.657V15.4586Z" fill="#6941C6"/>
<path d="M20.4447 15.2383H19.1027C18.9369 15.2383 18.8027 15.3724 18.8027 15.5383V17.5234C18.8027 17.689 18.9369 17.8234 19.1027 17.8234H20.4447C20.6106 17.8234 20.7447 17.6893 20.7447 17.5234V15.5383C20.7447 15.3724 20.6106 15.2383 20.4447 15.2383ZM20.1447 17.2231H19.4028V15.838H20.1447V17.2231Z" fill="#6941C6"/>
<path d="M20.4447 11.6758H19.1027C18.9369 11.6758 18.8027 11.8099 18.8027 11.9758V13.9612C18.8027 14.1268 18.9369 14.2612 19.1027 14.2612H20.4447C20.6106 14.2612 20.7447 14.1271 20.7447 13.9612V11.9758C20.7447 11.8098 20.6106 11.6758 20.4447 11.6758ZM20.1447 13.6609H19.4028V12.2755H20.1447V13.6609Z" fill="#6941C6"/>
<path d="M17.3273 15.2383H15.9853C15.8194 15.2383 15.6853 15.3724 15.6853 15.5383V17.5234C15.6853 17.689 15.8194 17.8234 15.9853 17.8234H17.3273C17.4931 17.8234 17.6273 17.6893 17.6273 17.5234V15.5383C17.6273 15.3724 17.4931 15.2383 17.3273 15.2383ZM17.0273 17.2231H16.2853V15.838H17.0273V17.2231Z" fill="#6941C6"/>
<path d="M17.3273 11.6758H15.9853C15.8194 11.6758 15.6853 11.8099 15.6853 11.9758V13.9612C15.6853 14.1268 15.8194 14.2612 15.9853 14.2612H17.3273C17.4931 14.2612 17.6273 14.1271 17.6273 13.9612V11.9758C17.6273 11.8098 17.4931 11.6758 17.3273 11.6758ZM17.0273 13.6609H16.2853V12.2755H17.0273V13.6609Z" fill="#6941C6"/>
<path d="M14.2101 15.2383H12.8681C12.7022 15.2383 12.5681 15.3724 12.5681 15.5383V17.5234C12.5681 17.689 12.7022 17.8234 12.8681 17.8234H14.2101C14.376 17.8234 14.5101 17.6893 14.5101 17.5234V15.5383C14.5101 15.3724 14.376 15.2383 14.2101 15.2383ZM13.9101 17.2231H13.1681V15.838H13.9101V17.2231Z" fill="#6941C6"/>
<path d="M14.2101 11.6758H12.8681C12.7022 11.6758 12.5681 11.8099 12.5681 11.9758V13.9612C12.5681 14.1268 12.7022 14.2612 12.8681 14.2612H14.2101C14.376 14.2612 14.5101 14.1271 14.5101 13.9612V11.9758C14.5101 11.8098 14.376 11.6758 14.2101 11.6758ZM13.9101 13.6609H13.1681V12.2755H13.9101V13.6609Z" fill="#6941C6"/>
<path d="M14.2101 18.8105H12.8681C12.7022 18.8105 12.5681 18.9447 12.5681 19.1106V21.096C12.5681 21.2619 12.7022 21.396 12.8681 21.396H14.2101C14.376 21.396 14.5101 21.2619 14.5101 21.096V19.1106C14.5101 18.9446 14.376 18.8105 14.2101 18.8105ZM13.9101 20.796H13.1681V19.4106H13.9101V20.796Z" fill="#6941C6"/>
<path d="M20.4447 8.11328H19.1027C18.9369 8.11328 18.8027 8.24741 18.8027 8.41329V10.3984C18.8027 10.564 18.9369 10.6984 19.1027 10.6984H20.4447C20.6106 10.6984 20.7447 10.5643 20.7447 10.3984V8.41329C20.7447 8.24735 20.6106 8.11328 20.4447 8.11328ZM20.1447 10.0981H19.4028V8.713H20.1447V10.0981Z" fill="#6941C6"/>
<path d="M17.3273 8.11328H15.9853C15.8194 8.11328 15.6853 8.24741 15.6853 8.41329V10.3984C15.6853 10.564 15.8194 10.6984 15.9853 10.6984H17.3273C17.4931 10.6984 17.6273 10.5643 17.6273 10.3984V8.41329C17.6273 8.24735 17.4931 8.11328 17.3273 8.11328ZM17.0273 10.0981H16.2853V8.713H17.0273V10.0981Z" fill="#6941C6"/>
<path d="M14.2101 8.11328H12.8681C12.7022 8.11328 12.5681 8.24741 12.5681 8.41329V10.3984C12.5681 10.564 12.7022 10.6984 12.8681 10.6984H14.2101C14.376 10.6984 14.5101 10.5643 14.5101 10.3984V8.41329C14.5101 8.24735 14.376 8.11328 14.2101 8.11328ZM13.9101 10.0981H13.1681V8.713H13.9101V10.0981Z" fill="#6941C6"/>
<path d="M23.7 23.381H22.5236V6.95353H22.9661C23.132 6.95353 23.2662 6.8194 23.2662 6.65352V5.14985C23.2662 4.98397 23.132 4.84984 22.9661 4.84984H20.7377V3.34981C20.7377 3.18392 20.6036 3.0498 20.4377 3.0498H18.56C18.3941 3.0498 18.26 3.18392 18.26 3.34981V4.84984H17.0608V3.34981C17.0608 3.18392 16.9267 3.0498 16.7608 3.0498H14.8828C14.7169 3.0498 14.5828 3.18392 14.5828 3.34981V4.84984H11.2776V4.42321H11.406C11.5718 4.42321 11.706 4.28909 11.706 4.12321V2.30582C11.706 2.13993 11.5718 2.00581 11.406 2.00581H7.7624V0.318562C7.7624 0.152679 7.62827 0.0185547 7.46239 0.0185547H5.86397C5.69809 0.0185547 5.56396 0.152679 5.56396 0.318562V2.00581H4.66781V0.318562C4.66781 0.152679 4.53368 0.0185547 4.3678 0.0185547H2.76968C2.60379 0.0185547 2.46967 0.152679 2.46967 0.318562V2.00581H1.55975C1.39386 2.00581 1.25974 2.13993 1.25974 2.30582V4.12326C1.25974 4.28915 1.39386 4.42327 1.55975 4.42327H1.71244V15.8002C1.03204 15.9312 0.518743 16.4998 0.518743 17.1787C0.518743 17.32 0.540951 17.4583 0.585014 17.5921C0.392705 17.8591 0.288933 18.1744 0.288933 18.4987C0.288933 18.6742 0.318934 18.8461 0.378349 19.0117C0.157562 19.3174 0.0375595 19.6804 0.0375595 20.0524C0.0375595 20.9803 0.768652 21.749 1.71883 21.8831L1.72241 23.3807H0.300007C0.134124 23.3807 0 23.5148 0 23.6807C0 23.8466 0.13348 23.981 0.299421 23.981H23.7C23.8659 23.981 24 23.8469 24 23.681C24 23.5151 23.8659 23.381 23.7 23.381ZM18.86 3.64982H20.1377V4.84984H18.86V3.64982ZM15.1828 3.64982H16.4608V4.84984H15.1828V3.64982ZM22.6661 5.44986V6.35346H10.5683V5.44986H22.6661ZM6.16398 0.618862H7.16238V2.0061H6.16398V0.618862ZM3.06939 0.618862H4.0675V2.0061H3.06939V0.618862ZM1.85975 2.60612H11.106V3.82355H1.85975V2.60612ZM0.637223 20.0527C0.637223 19.7602 0.744628 19.4863 0.947718 19.2598C1.03022 19.1677 1.04792 19.0345 0.992134 18.9241C0.92346 18.7882 0.888303 18.6451 0.888303 18.499C0.888303 18.2617 0.981293 18.0301 1.15022 17.8462C1.23425 17.7547 1.25341 17.6206 1.19763 17.5093C1.14483 17.4034 1.11811 17.2924 1.11811 17.1787C1.11811 16.7338 1.5192 16.3716 2.01187 16.3716C2.48947 16.3716 2.88159 16.7089 2.90468 17.1375L2.90585 17.179C2.90585 17.2926 2.87913 17.4037 2.82634 17.5096C2.77056 17.6209 2.78972 17.755 2.87374 17.8465C3.04267 18.0301 3.13566 18.262 3.13566 18.4993C3.13566 18.6454 3.10086 18.7885 3.03183 18.9244C2.97605 19.0345 2.99374 19.1677 3.07595 19.2598C3.10654 19.2937 3.13508 19.3294 3.16144 19.3657C3.30875 19.57 3.38674 19.8076 3.38674 20.053C3.38674 20.7442 2.76962 21.3064 2.01151 21.3064C1.25341 21.3064 0.637223 20.744 0.637223 20.0527ZM7.32469 23.381H5.32695V19.7681C5.32695 19.2173 5.77485 18.769 6.32564 18.769C6.87644 18.769 7.32469 19.2172 7.32469 19.7681V23.381ZM10.7111 23.3813H7.925V19.7681C7.925 18.8863 7.20768 18.169 6.32594 18.169C5.44449 18.169 4.72722 18.8863 4.72722 19.7681V23.381H2.32178L2.31849 21.8816C3.26264 21.743 3.98775 20.9768 3.98775 20.0527C3.98775 19.6804 3.87045 19.3213 3.64814 19.0135C3.64784 19.0129 3.64726 19.0123 3.64696 19.0117C3.70638 18.8461 3.73638 18.6744 3.73638 18.4989C3.73638 18.1746 3.63226 17.859 3.4403 17.5923C3.48413 17.4585 3.50663 17.3202 3.50663 17.1789C3.50663 17.1555 3.50604 17.1321 3.50481 17.1072C3.46971 16.455 2.96779 15.9267 2.31258 15.801V4.42356H10.6777V4.8502H10.2685C10.1026 4.8502 9.96845 4.98432 9.96845 5.1502V6.65381C9.96845 6.8197 10.1026 6.95382 10.2685 6.95382H10.7113V23.3813H10.7111ZM17.9693 23.381H16.3549V19.4107H17.9693V23.381ZM20.1836 23.381H18.5692V19.4107H20.1836V23.381ZM21.9236 23.381H20.7836V19.1107C20.7836 18.9449 20.6495 18.8107 20.4836 18.8107H16.0552C15.8893 18.8107 15.7552 18.9449 15.7552 19.1107V23.381H11.3109V6.95353H21.9236V23.381Z" fill="#6941C6"/>
</g>
<defs>
<clipPath id="clip0_2132_5906">
<rect width="24" height="24" fill="white"/>
</clipPath>
</defs>
</svg>
