<svg width="42" height="43" viewBox="0 0 42 43" fill="none" xmlns="http://www.w3.org/2000/svg">
<rect y="0.5" width="42" height="42" rx="21" fill="#DACAFF"/>
<path d="M13.5372 19.9713C13.8021 17.9841 15.4973 16.5 17.5021 16.5H24.4979C26.5027 16.5 28.1979 17.9841 28.4628 19.9713L29.3962 26.9713C29.7159 29.3693 27.8504 31.5 25.4313 31.5H16.5687C14.1496 31.5 12.2841 29.3693 12.6038 26.9713L13.5372 19.9713Z" stroke="#6941C6" stroke-width="1.5"/>
<path d="M18.5 24.5L20.5 26.5L24.5 22.5" stroke="#6941C6" stroke-width="1.5" stroke-linecap="round" stroke-linejoin="round"/>
<path d="M25 18.5V15.5C25 13.2909 23.2091 11.5 21 11.5C18.7909 11.5 17 13.2909 17 15.5L17 18.5" stroke="#6941C6" stroke-width="1.5" stroke-linecap="round"/>
</svg>
