<svg width="498" height="198" viewBox="0 0 498 198" fill="none" xmlns="http://www.w3.org/2000/svg">
<path d="M497.487 76.9985V80.142C497.487 86.0736 496.653 91.4014 494.983 96.1255C493.349 100.814 491.023 104.828 488.004 108.166C484.985 111.47 481.415 114.009 477.295 115.785C473.175 117.526 468.628 118.396 463.656 118.396C458.647 118.396 454.066 117.526 449.91 115.785C445.79 114.009 442.202 111.47 439.148 108.166C436.129 104.828 433.784 100.814 432.115 96.1255C430.481 91.4014 429.664 86.0736 429.664 80.142V76.9985C429.664 71.0669 430.481 65.739 432.115 61.015C433.784 56.291 436.111 52.2774 439.094 48.9741C442.113 45.6354 445.683 43.0957 449.803 41.3553C453.959 39.5794 458.541 38.6914 463.549 38.6914C468.522 38.6914 473.068 39.5794 477.188 41.3553C481.344 43.0957 484.931 45.6354 487.951 48.9741C490.97 52.2774 493.314 56.291 494.983 61.015C496.653 65.739 497.487 71.0669 497.487 76.9985ZM478.52 80.142V76.892C478.52 73.0559 478.183 69.6816 477.508 66.7691C476.869 63.821 475.91 61.3525 474.631 59.3634C473.352 57.3743 471.772 55.8826 469.889 54.888C468.042 53.858 465.929 53.343 463.549 53.343C461.063 53.343 458.896 53.858 457.049 54.888C455.202 55.8826 453.657 57.3743 452.414 59.3634C451.171 61.3525 450.23 63.821 449.59 66.7691C448.986 69.6816 448.684 73.0559 448.684 76.892V80.142C448.684 83.9425 448.986 87.3168 449.59 90.2648C450.23 93.1774 451.171 95.646 452.414 97.6705C453.693 99.6951 455.255 101.222 457.102 102.252C458.985 103.283 461.169 103.798 463.656 103.798C466.035 103.798 468.149 103.283 469.996 102.252C471.843 101.222 473.388 99.6951 474.631 97.6705C475.91 95.646 476.869 93.1774 477.508 90.2648C478.183 87.3168 478.52 83.9425 478.52 80.142Z" fill="#141B41"/>
<path d="M407.414 70.5449V84.93H367.616V70.5449H407.414ZM373.849 39.75V117.323H355.148V39.75H373.849ZM419.988 39.75V117.323H401.341V39.75H419.988Z" fill="#141B41"/>
<path d="M345.448 76.9985V80.142C345.448 86.0736 344.614 91.4014 342.944 96.1255C341.31 100.814 338.984 104.828 335.965 108.166C332.946 111.47 329.376 114.009 325.256 115.785C321.136 117.526 316.589 118.396 311.617 118.396C306.608 118.396 302.026 117.526 297.871 115.785C293.751 114.009 290.163 111.47 287.109 108.166C284.089 104.828 281.745 100.814 280.076 96.1255C278.442 91.4014 277.625 86.0736 277.625 80.142V76.9985C277.625 71.0669 278.442 65.739 280.076 61.015C281.745 56.291 284.072 52.2774 287.055 48.9741C290.074 45.6354 293.644 43.0957 297.764 41.3553C301.92 39.5794 306.502 38.6914 311.51 38.6914C316.483 38.6914 321.029 39.5794 325.149 41.3553C329.305 43.0957 332.892 45.6354 335.912 48.9741C338.931 52.2774 341.275 56.291 342.944 61.015C344.614 65.739 345.448 71.0669 345.448 76.9985ZM326.481 80.142V76.892C326.481 73.0559 326.144 69.6816 325.469 66.7691C324.83 63.821 323.871 61.3525 322.592 59.3634C321.313 57.3743 319.733 55.8826 317.85 54.888C316.003 53.858 313.89 53.343 311.51 53.343C309.024 53.343 306.857 53.858 305.01 54.888C303.163 55.8826 301.618 57.3743 300.375 59.3634C299.132 61.3525 298.19 63.821 297.551 66.7691C296.947 69.6816 296.645 73.0559 296.645 76.892V80.142C296.645 83.9425 296.947 87.3168 297.551 90.2648C298.19 93.1774 299.132 95.646 300.375 97.6705C301.654 99.6951 303.216 101.222 305.063 102.252C306.946 103.283 309.13 103.798 311.617 103.798C313.996 103.798 316.11 103.283 317.957 102.252C319.804 101.222 321.349 99.6951 322.592 97.6705C323.871 95.646 324.83 93.1774 325.469 90.2648C326.144 87.3168 326.481 83.9425 326.481 80.142Z" fill="#141B41"/>
<path d="M251.463 96.7115C251.463 95.5039 251.285 94.4206 250.93 93.4615C250.575 92.467 249.918 91.5435 248.959 90.6911C248 89.8386 246.615 88.9862 244.803 88.1337C243.027 87.2457 240.683 86.3222 237.77 85.3632C234.36 84.2266 231.075 82.9479 227.914 81.5272C224.753 80.0709 221.929 78.3838 219.443 76.4658C216.956 74.5122 214.985 72.239 213.529 69.6461C212.072 67.0177 211.344 63.9631 211.344 60.4822C211.344 57.1435 212.09 54.1421 213.582 51.4782C215.074 48.7788 217.152 46.4878 219.816 44.6053C222.515 42.6873 225.676 41.231 229.299 40.2365C232.922 39.2064 236.882 38.6914 241.18 38.6914C246.863 38.6914 251.871 39.6859 256.205 41.675C260.573 43.6285 263.983 46.4168 266.434 50.0397C268.92 53.6271 270.164 57.8716 270.164 62.7732H251.569C251.569 60.8197 251.161 59.097 250.344 57.6052C249.563 56.1134 248.373 54.9413 246.774 54.0888C245.176 53.2364 243.169 52.8102 240.754 52.8102C238.41 52.8102 236.438 53.1654 234.84 53.8757C233.242 54.5861 232.034 55.5451 231.217 56.7528C230.4 57.9249 229.992 59.2213 229.992 60.6421C229.992 61.8142 230.311 62.8798 230.951 63.8388C231.626 64.7623 232.567 65.6325 233.774 66.4494C235.018 67.2664 236.509 68.0478 238.25 68.7937C240.026 69.5396 242.015 70.2677 244.217 70.9781C248.337 72.2923 251.996 73.7663 255.192 75.4002C258.425 76.9985 261.142 78.8278 263.344 80.8879C265.582 82.9124 267.269 85.2212 268.405 87.814C269.577 90.4069 270.164 93.3372 270.164 96.605C270.164 100.086 269.489 103.176 268.139 105.875C266.789 108.575 264.853 110.866 262.332 112.748C259.81 114.595 256.791 115.998 253.274 116.957C249.758 117.916 245.833 118.396 241.5 118.396C237.522 118.396 233.597 117.899 229.725 116.904C225.889 115.874 222.408 114.311 219.283 112.216C216.157 110.084 213.653 107.367 211.77 104.064C209.923 100.725 209 96.7648 209 92.1829H227.754C227.754 94.4561 228.056 96.3741 228.66 97.9369C229.264 99.4998 230.152 100.761 231.324 101.72C232.496 102.643 233.934 103.318 235.639 103.744C237.344 104.135 239.298 104.33 241.5 104.33C243.88 104.33 245.798 103.993 247.254 103.318C248.71 102.608 249.776 101.684 250.451 100.548C251.125 99.3754 251.463 98.0968 251.463 96.7115Z" fill="#141B41"/>
<path d="M486.975 148.82H480.191V147.103H486.975C488.392 147.103 489.542 146.874 490.425 146.417C491.319 145.948 491.967 145.316 492.371 144.52C492.785 143.725 492.992 142.831 492.992 141.839C492.992 140.869 492.785 139.975 492.371 139.158C491.967 138.34 491.319 137.686 490.425 137.196C489.542 136.695 488.392 136.444 486.975 136.444H480.894V158.515H478.883V134.711H486.975C488.719 134.711 490.185 135.011 491.373 135.61C492.572 136.21 493.477 137.043 494.087 138.111C494.697 139.18 495.003 140.411 495.003 141.806C495.003 143.267 494.697 144.526 494.087 145.583C493.477 146.629 492.578 147.43 491.39 147.986C490.202 148.542 488.73 148.82 486.975 148.82Z" fill="#141B41"/>
<path d="M427.676 134.711H429.686V150.831C429.686 152.618 429.31 154.106 428.558 155.294C427.806 156.482 426.793 157.37 425.517 157.959C424.253 158.547 422.853 158.842 421.316 158.842C419.735 158.842 418.313 158.547 417.049 157.959C415.785 157.37 414.782 156.482 414.041 155.294C413.31 154.106 412.945 152.618 412.945 150.831V134.711H414.94V150.831C414.94 152.215 415.212 153.376 415.757 154.313C416.302 155.25 417.054 155.953 418.013 156.422C418.973 156.891 420.073 157.125 421.316 157.125C422.547 157.125 423.643 156.891 424.602 156.422C425.561 155.953 426.313 155.25 426.858 154.313C427.403 153.376 427.676 152.215 427.676 150.831V134.711Z" fill="#141B41"/>
<path d="M364.704 145.333V147.883C364.704 149.551 364.486 151.06 364.05 152.412C363.625 153.752 363.003 154.902 362.186 155.861C361.379 156.82 360.409 157.556 359.276 158.068C358.142 158.58 356.867 158.837 355.45 158.837C354.066 158.837 352.802 158.58 351.657 158.068C350.524 157.556 349.548 156.82 348.731 155.861C347.913 154.902 347.281 153.752 346.834 152.412C346.387 151.06 346.164 149.551 346.164 147.883V145.333C346.164 143.665 346.382 142.161 346.818 140.82C347.265 139.469 347.897 138.314 348.714 137.354C349.532 136.395 350.507 135.66 351.641 135.147C352.774 134.635 354.033 134.379 355.417 134.379C356.834 134.379 358.11 134.635 359.243 135.147C360.377 135.66 361.352 136.395 362.169 137.354C362.987 138.314 363.614 139.469 364.05 140.82C364.486 142.161 364.704 143.665 364.704 145.333ZM362.709 147.883V145.3C362.709 143.894 362.545 142.63 362.219 141.507C361.902 140.384 361.428 139.425 360.796 138.63C360.175 137.834 359.412 137.224 358.507 136.799C357.603 136.373 356.573 136.161 355.417 136.161C354.295 136.161 353.287 136.373 352.393 136.799C351.499 137.224 350.736 137.834 350.104 138.63C349.483 139.425 349.003 140.384 348.665 141.507C348.338 142.63 348.175 143.894 348.175 145.3V147.883C348.175 149.3 348.338 150.575 348.665 151.709C349.003 152.831 349.488 153.796 350.12 154.602C350.753 155.398 351.516 156.008 352.409 156.433C353.314 156.858 354.328 157.071 355.45 157.071C356.616 157.071 357.646 156.858 358.54 156.433C359.434 156.008 360.191 155.398 360.813 154.602C361.434 153.796 361.902 152.831 362.219 151.709C362.545 150.575 362.709 149.3 362.709 147.883Z" fill="#141B41"/>
<path d="M282.273 134.711H290.006C291.652 134.711 293.08 134.978 294.29 135.512C295.5 136.046 296.431 136.836 297.085 137.883C297.75 138.918 298.083 140.193 298.083 141.708C298.083 142.831 297.843 143.85 297.363 144.765C296.895 145.681 296.246 146.449 295.418 147.071C294.589 147.681 293.63 148.101 292.54 148.329L291.837 148.591H283.581L283.549 146.874H290.464C291.707 146.874 292.742 146.635 293.57 146.155C294.399 145.675 295.02 145.043 295.434 144.259C295.859 143.463 296.072 142.613 296.072 141.708C296.072 140.629 295.837 139.697 295.369 138.913C294.911 138.117 294.23 137.507 293.325 137.082C292.421 136.656 291.314 136.444 290.006 136.444H284.284V158.515H282.273V134.711ZM296.971 158.515L290.807 147.872L292.966 147.855L299.113 158.302V158.515H296.971Z" fill="#141B41"/>
<path d="M232.82 147.634V156.102C232.548 156.506 232.079 156.953 231.414 157.443C230.749 157.934 229.856 158.364 228.733 158.735C227.61 159.094 226.215 159.274 224.548 159.274C223.153 159.274 221.872 159.023 220.706 158.522C219.54 158.021 218.526 157.296 217.665 156.348C216.815 155.389 216.155 154.239 215.687 152.898C215.229 151.558 215 150.053 215 148.386V145.508C215 143.874 215.213 142.402 215.638 141.094C216.063 139.776 216.678 138.647 217.485 137.71C218.292 136.773 219.262 136.059 220.395 135.568C221.539 135.067 222.82 134.816 224.237 134.816C226.003 134.816 227.49 135.122 228.7 135.732C229.91 136.342 230.853 137.182 231.529 138.25C232.215 139.307 232.64 140.506 232.804 141.846H230.793C230.64 140.898 230.324 140.026 229.845 139.231C229.365 138.424 228.668 137.776 227.752 137.285C226.847 136.795 225.676 136.549 224.237 136.549C223.082 136.549 222.052 136.762 221.147 137.187C220.253 137.612 219.501 138.217 218.891 139.002C218.281 139.786 217.817 140.729 217.501 141.83C217.185 142.92 217.027 144.135 217.027 145.476V148.386C217.027 149.781 217.202 151.04 217.55 152.162C217.91 153.285 218.422 154.25 219.087 155.056C219.752 155.863 220.548 156.484 221.474 156.92C222.401 157.345 223.431 157.558 224.564 157.558C225.774 157.558 226.804 157.443 227.654 157.214C228.504 156.985 229.185 156.713 229.698 156.397C230.221 156.07 230.597 155.765 230.826 155.481V149.35H224.433V147.634H232.82Z" fill="#141B41"/>
<path fill-rule="evenodd" clip-rule="evenodd" d="M115.576 75.3352L88.3722 59.6861C87.397 59.1249 86.293 59.1203 85.3132 59.6723L57.9433 75.0316C57.6489 75.1972 57.4834 75.5008 57.4926 75.8412C57.5018 76.1816 57.6858 76.4668 57.9893 76.6232L85.5984 90.6117C86.2976 90.9659 87.052 90.9705 87.7558 90.6209L115.512 76.9222C115.816 76.7704 116.004 76.4852 116.018 76.1448C116.032 75.8044 115.871 75.5008 115.576 75.3306V75.3352Z" fill="#306BAC"/>
<path fill-rule="evenodd" clip-rule="evenodd" d="M117.605 82.5852L90.9803 95.7227C90.1385 96.1367 89.6417 96.9371 89.6325 97.8755L89.4531 132.012C89.4531 132.454 89.6647 132.831 90.0465 133.056C90.4237 133.282 90.8607 133.286 91.2471 133.075L118.497 117.95C119.477 117.407 120.043 116.45 120.048 115.328L120.213 84.2182C120.213 83.5742 119.91 83.0176 119.362 82.6726C118.815 82.3276 118.18 82.3 117.6 82.5852H117.605Z" fill="#306BAC"/>
<path fill-rule="evenodd" clip-rule="evenodd" d="M82.2867 95.6742L55.8 82.2561C55.225 81.9663 54.5902 81.9893 54.0382 82.3251C53.4862 82.6609 53.1734 83.2128 53.1734 83.8614L53.0078 114.971C53.0032 116.089 53.5598 117.055 54.535 117.607L81.6243 133.017C82.0061 133.233 82.4431 133.233 82.8249 133.012C83.2067 132.791 83.4275 132.414 83.4275 131.973L83.6069 97.8362C83.6115 96.8978 83.1193 96.0928 82.2867 95.6696V95.6742Z" fill="#141B41"/>
<path fill-rule="evenodd" clip-rule="evenodd" d="M141.555 54.1445C141.564 53.8409 141.578 53.5373 141.601 53.2383L141.555 54.1445Z" fill="black"/>
<path fill-rule="evenodd" clip-rule="evenodd" d="M161.189 125.77C160.826 125.742 160.485 125.664 160.117 125.664C151.704 125.664 144.859 132.509 144.859 140.922C144.859 143.434 145.526 145.771 146.607 147.864C149.142 152.776 154.216 156.18 160.117 156.18C168.531 156.18 175.376 149.336 175.376 140.922C175.376 132.877 169.097 126.336 161.189 125.774V125.77Z" fill="#306BAC"/>
<path fill-rule="evenodd" clip-rule="evenodd" d="M157.939 41.4574C157.576 41.4298 157.235 41.3516 156.867 41.3516C148.454 41.3516 141.609 48.1963 141.609 56.6097C141.609 59.1213 142.276 61.4581 143.357 63.551C145.892 68.4638 150.966 71.8678 156.867 71.8678C165.281 71.8678 172.126 65.023 172.126 56.6097C172.126 48.5643 165.847 42.0232 157.939 41.462V41.4574Z" fill="#306BAC"/>
<path fill-rule="evenodd" clip-rule="evenodd" d="M87.3299 0.105797C86.9665 0.0781976 86.6261 0 86.2581 0C77.8448 0 71 6.84476 71 15.2581C71 17.7697 71.667 20.1065 72.748 22.1995C75.2826 27.1122 80.3563 30.5162 86.2581 30.5162C94.6715 30.5162 101.516 23.6715 101.516 15.2581C101.516 7.21276 95.2373 0.671595 87.3299 0.110398V0.105797Z" fill="#306BAC"/>
<path fill-rule="evenodd" clip-rule="evenodd" d="M17.6893 41.4574C17.3259 41.4298 16.9855 41.3516 16.6175 41.3516C8.20414 41.3516 1.35938 48.1963 1.35938 56.6097C1.35938 59.1213 2.02637 61.4581 3.10737 63.551C5.64195 68.4638 10.7157 71.8678 16.6175 71.8678C25.0308 71.8678 31.8756 65.023 31.8756 56.6097C31.8756 48.5643 25.5966 42.0232 17.6893 41.462V41.4574Z" fill="#141B41"/>
<path fill-rule="evenodd" clip-rule="evenodd" d="M16.3299 123.465C15.9665 123.438 15.6261 123.359 15.2581 123.359C6.84476 123.359 0 130.204 0 138.617C0 141.129 0.666998 143.466 1.74799 145.559C4.28258 150.472 9.35635 153.876 15.2581 153.876C23.6715 153.876 30.5162 147.031 30.5162 138.617C30.5162 130.572 24.2373 124.031 16.3299 123.47V123.465Z" fill="#141B41"/>
<path fill-rule="evenodd" clip-rule="evenodd" d="M87.3299 167.59C86.9665 167.563 86.6261 167.484 86.2581 167.484C77.8448 167.484 71 174.329 71 182.742C71 185.254 71.667 187.591 72.748 189.684C75.2826 194.597 80.3563 198.001 86.2581 198.001C94.6715 198.001 101.516 191.156 101.516 182.742C101.516 174.697 95.2373 168.156 87.3299 167.595V167.59Z" fill="#141B41"/>
<path fill-rule="evenodd" clip-rule="evenodd" d="M137.415 136.42L122.659 128.844C121.909 128.457 121.012 128.637 120.442 129.258C113.238 137.087 103.403 142.441 92.3219 143.89C91.3881 144.01 90.6797 144.783 90.6797 145.726V158.96C90.6797 159.838 91.3007 160.561 92.1517 160.768C97.6487 162.092 102.446 165.216 105.883 169.489C106.471 170.221 107.479 170.451 108.293 169.981L139.315 152.069C140.162 151.581 140.451 150.542 140.056 149.649C138.887 146.972 138.234 144.024 138.234 140.919C138.234 140.049 138.294 139.189 138.4 138.347C138.496 137.556 138.124 136.788 137.415 136.425V136.42Z" fill="#306BAC"/>
<path fill-rule="evenodd" clip-rule="evenodd" d="M37.5137 63.5282L47.5601 69.3288C48.3651 69.7934 49.3679 69.5818 49.9429 68.855C57.059 59.9356 67.363 53.6935 79.1481 51.8811C80.0635 51.7385 80.7443 50.9795 80.7443 50.0549V36.3562C80.7443 35.5098 80.1693 34.806 79.3551 34.576C72.7495 32.69 67.248 28.1774 64.0556 22.2389C63.545 21.2867 62.3904 20.9003 61.452 21.4431L33.6083 37.5154C32.6286 38.0812 32.4078 39.3508 33.0563 40.2753C35.9083 44.3601 37.5873 49.3235 37.5873 54.6687C37.5873 56.9917 37.2561 59.2318 36.6627 61.3662C36.4281 62.2034 36.7547 63.0866 37.5091 63.519L37.5137 63.5282Z" fill="#141B41"/>
<path fill-rule="evenodd" clip-rule="evenodd" d="M80.7588 159.244V145.554C80.7588 144.63 80.0734 143.866 79.158 143.724C68.1595 142.035 58.4259 136.515 51.3926 128.539C50.8268 127.895 49.9114 127.706 49.1478 128.097L38.0296 133.801C37.2706 134.192 36.8981 135.034 37.0729 135.871C37.4132 137.5 37.6064 139.183 37.6064 140.913C37.6064 144.975 36.622 148.802 34.9063 152.197C34.4463 153.103 34.7269 154.198 35.6055 154.704L63.5687 170.85C64.4105 171.337 65.4501 171.075 66.0251 170.293C69.2911 165.877 73.9554 162.565 79.365 161.019C80.1792 160.785 80.7588 160.076 80.7588 159.235V159.244Z" fill="#141B41"/>
<path fill-rule="evenodd" clip-rule="evenodd" d="M90.6843 36.6329V49.8762C90.6843 50.8192 91.3927 51.5874 92.3265 51.707C104.185 53.2526 114.613 59.2786 121.918 68.0186C122.502 68.7177 123.487 68.9109 124.273 68.4555L134.734 62.4158C135.456 61.9972 135.782 61.1692 135.594 60.3596C135.166 58.5288 134.927 56.629 134.927 54.6694C134.927 49.6693 136.408 45.0141 138.938 41.0903C139.522 40.1887 139.288 38.9927 138.354 38.4591L110.51 22.3822C109.599 21.8578 108.477 22.2074 107.948 23.109C104.526 28.905 98.863 33.2151 92.1471 34.8297C91.2961 35.0367 90.6797 35.7589 90.6797 36.6329H90.6843Z" fill="#306BAC"/>
<path fill-rule="evenodd" clip-rule="evenodd" d="M139.245 71.2853L129.603 76.8513C128.775 77.3297 128.462 78.3463 128.844 79.2249C131.337 84.9151 132.759 91.1802 132.759 97.795C132.759 105.16 131.048 112.128 127.998 118.315C127.542 119.24 127.883 120.349 128.798 120.818L141.232 127.198C142.019 127.603 142.952 127.377 143.527 126.706C147.543 122.014 153.486 119.028 160.129 119.028C160.492 119.028 160.842 119.065 161.2 119.084V79.8091C160.842 79.8229 160.487 79.8643 160.129 79.8643C152.792 79.8643 146.182 76.7041 141.572 71.6809C140.97 71.0231 140.018 70.8437 139.249 71.2853H139.245Z" fill="#306BAC"/>
<path fill-rule="evenodd" clip-rule="evenodd" d="M33.6383 124.87L43.3212 119.902C44.2228 119.438 44.5678 118.361 44.1354 117.441C41.3386 111.471 39.7516 104.824 39.7516 97.7994C39.7516 91.5619 41.012 85.6325 43.243 80.1999C43.6018 79.3259 43.2844 78.3369 42.4656 77.8631L32.4745 72.0948C31.7293 71.667 30.8093 71.8188 30.2021 72.4306C25.6389 77.0121 19.3461 79.8641 12.3864 79.8641C11.2778 79.8641 10.1968 79.7675 9.125 79.6295V115.956C10.1968 115.818 11.2778 115.721 12.3864 115.721C19.9579 115.721 26.7475 119.093 31.3659 124.401C31.9363 125.059 32.8609 125.27 33.6337 124.87H33.6383Z" fill="#141B41"/>
</svg>
