<svg width="28" height="28" viewBox="0 0 28 28" fill="none" xmlns="http://www.w3.org/2000/svg">
<g clip-path="url(#clip0_410_3491)">
<path d="M20.6725 12.2066C21.3454 11.7556 21.828 11.0828 22.0407 10.2888C22.2733 9.42092 22.1554 8.51683 21.7086 7.74305C21.2619 6.96928 20.5379 6.41508 19.67 6.18249C18.876 5.96976 18.0521 6.05124 17.325 6.40857L15.4516 3.16379C15.0528 2.47304 14.3365 2.07043 13.5413 2.08399C12.7439 2.09859 12.045 2.52805 11.6716 3.23281C11.4094 3.72795 11.1632 4.24229 10.9025 4.78686C9.83996 7.00636 8.63568 9.52198 6.03218 11.0251L2.68678 12.9566C1.53522 13.6214 0.710373 14.6992 0.364091 15.9914C0.0178649 17.2836 0.193302 18.6295 0.858138 19.781C1.78241 21.3819 3.46515 22.2779 5.19311 22.2779C5.82333 22.2779 6.45951 22.1585 7.06719 21.9108L9.4059 25.9616C9.88978 26.7997 10.7705 27.2686 11.675 27.2686C12.1183 27.2686 12.5674 27.1559 12.9781 26.9188C13.5812 26.5706 14.0131 26.0065 14.1943 25.3303C14.3754 24.6542 14.2835 23.9497 13.9353 23.3466L11.634 19.3607C14.0569 18.2089 16.6 18.4043 18.8642 18.5793C19.4667 18.6259 20.0357 18.6699 20.5961 18.6904C21.392 18.7189 22.1145 18.329 22.5258 17.6456C22.9371 16.9623 22.9446 16.1421 22.5458 15.4513L20.6725 12.2066ZM19.3162 7.50308C19.8313 7.64111 20.2605 7.96908 20.5246 8.42665C21.0346 9.3099 20.7875 10.4255 19.9865 11.0185L18.011 7.59682C18.4199 7.41925 18.8754 7.38496 19.3162 7.50308ZM5.19087 20.9111C3.9359 20.911 2.71352 20.2602 2.04223 19.0974C1.56 18.2622 1.43301 17.2848 1.68479 16.3453C1.93652 15.4058 2.53519 14.6228 3.37043 14.1406L6.12411 12.5508L9.75612 18.8339L6.99911 20.4257C6.42904 20.7548 5.80615 20.9111 5.19087 20.9111ZM12.8737 24.9766C12.7871 25.3 12.5814 25.5693 12.2946 25.7349C11.6987 26.0788 10.934 25.874 10.5899 25.2781L8.27464 21.2679L10.436 20.02L12.7513 24.0302C12.9169 24.3171 12.9604 24.6531 12.8737 24.9766ZM21.3545 16.9407C21.199 17.199 20.9483 17.3358 20.6461 17.3242C20.1135 17.3047 19.5579 17.2617 18.9697 17.2163C16.4988 17.0254 13.7205 16.8113 10.9519 18.1706L7.29639 11.8469C9.86101 10.127 11.0652 7.61328 12.1357 5.37727C12.3902 4.84554 12.6307 4.34329 12.8798 3.87276C13.021 3.60627 13.2648 3.45648 13.5663 3.45101C13.5719 3.4509 13.5776 3.45085 13.5833 3.45085C13.8771 3.45085 14.1197 3.59123 14.2676 3.84744L21.3619 16.1351C21.5127 16.3963 21.5101 16.6823 21.3545 16.9407ZM19.5787 3.51844L20.9904 1.07326C21.1792 0.746278 21.5972 0.634224 21.9242 0.82306C22.2512 1.01184 22.3632 1.42993 22.1744 1.75685L20.7627 4.20204C20.6361 4.42133 20.4063 4.54394 20.17 4.54394C20.0541 4.54394 19.9365 4.51441 19.8289 4.45223C19.5019 4.26345 19.3899 3.84536 19.5787 3.51844ZM25.9254 6.09783L23.421 7.54377C23.3134 7.6059 23.1958 7.63548 23.0799 7.63548C22.8436 7.63548 22.6139 7.51287 22.4872 7.29357C22.2984 6.9666 22.4105 6.54851 22.7374 6.35979L25.2418 4.91385C25.5686 4.72501 25.9868 4.83712 26.1756 5.16404C26.3643 5.49097 26.2523 5.90911 25.9254 6.09783ZM27.8093 11.0163C27.8093 11.3938 27.5033 11.6999 27.1257 11.6999H24.3022C23.9247 11.6999 23.6186 11.3939 23.6186 11.0163C23.6186 10.6388 23.9247 10.3327 24.3022 10.3327H27.1257C27.5033 10.3327 27.8093 10.6388 27.8093 11.0163Z" fill="#6941C6"/>
</g>
<defs>
<clipPath id="clip0_410_3491">
<rect width="28" height="28" fill="white"/>
</clipPath>
</defs>
</svg>
