<svg width="28" height="28" viewBox="0 0 28 28" fill="none" xmlns="http://www.w3.org/2000/svg">
<g clip-path="url(#clip0_410_3459)">
<path d="M20.6932 4.08333C20.3712 2.90267 19.3573 2.04983 18.0839 1.95825C16.5929 1.85092 14.3879 1.75 11.375 1.75C8.38017 1.75 6.1845 1.84975 4.69408 1.9565C3.2025 2.06267 2.06208 3.2025 1.95592 4.69467C1.84917 6.18508 1.75 8.38133 1.75 11.375C1.75 14.3879 1.8515 16.5923 1.95825 18.0833C2.04983 19.3567 2.90325 20.3712 4.08333 20.6926" stroke="#6941C6" stroke-width="1.6" stroke-linecap="round" stroke-linejoin="round"/>
<path d="M7.2065 9.94408C7.31267 8.4525 8.4525 7.31325 9.94467 7.2065C11.4345 7.09917 13.6307 7 16.625 7C19.6192 7 21.8149 7.09975 23.3053 7.2065C24.7975 7.31267 25.9373 8.4525 26.0435 9.94467C26.1502 11.4351 26.25 13.6313 26.25 16.625C26.25 19.6192 26.1502 21.8149 26.0435 23.3059C25.9373 24.7975 24.7975 25.9367 23.3053 26.0435C21.8149 26.1502 19.6187 26.25 16.625 26.25C13.6307 26.25 11.4351 26.1502 9.94408 26.0435C8.4525 25.9373 7.31325 24.7975 7.2065 23.3053C7.09917 21.8155 7 19.6192 7 16.625C7 13.6307 7.09975 11.4351 7.2065 9.94408Z" stroke="#6941C6" stroke-width="1.6" stroke-linecap="round" stroke-linejoin="round"/>
<path d="M26.1601 21.227C24.8447 19.9938 23.8968 19.1725 23.2388 18.6346C22.4583 17.9959 21.4293 17.9031 20.5887 18.4637C19.9412 18.8954 19.0522 19.5545 17.8908 20.5515C16.1641 18.9 14.9741 17.8623 14.1936 17.2235C13.4131 16.5848 12.3841 16.4926 11.5436 17.0526C10.5986 17.6826 9.13847 18.798 7.07056 20.7381M18.6666 12.8334C18.6666 13.2975 18.851 13.7426 19.1792 14.0708C19.5074 14.399 19.9525 14.5834 20.4166 14.5834C20.8808 14.5834 21.3259 14.399 21.6541 14.0708C21.9823 13.7426 22.1666 13.2975 22.1666 12.8334C22.1666 12.3692 21.9823 11.9241 21.6541 11.5959C21.3259 11.2677 20.8808 11.0834 20.4166 11.0834C19.9525 11.0834 19.5074 11.2677 19.1792 11.5959C18.851 11.9241 18.6666 12.3692 18.6666 12.8334Z" stroke="#6941C6" stroke-width="1.6" stroke-linecap="round" stroke-linejoin="round"/>
</g>
<defs>
<clipPath id="clip0_410_3459">
<rect width="28" height="28" fill="white"/>
</clipPath>
</defs>
</svg>
