<svg width="28" height="28" viewBox="0 0 28 28" fill="none" xmlns="http://www.w3.org/2000/svg">
<path d="M19.25 3.4502C22.1709 3.4502 24.5498 5.82905 24.5498 8.75V19.25C24.5498 22.1709 22.1709 24.5498 19.25 24.5498H8.75C5.82905 24.5498 3.4502 22.1709 3.4502 19.25V8.75C3.4502 6.35908 5.03995 4.33343 7.21875 3.67969L7.52344 3.5957C7.8319 3.52094 8.15191 3.47373 8.47852 3.45605L8.75 3.4502H19.25ZM8.75 4.7168C8.46768 4.7168 8.19132 4.74525 7.92676 4.80273H7.92578C6.09357 5.18307 4.7168 6.80839 4.7168 8.75V19.25C4.7168 21.4741 6.52595 23.2832 8.75 23.2832H19.25C21.4741 23.2832 23.2832 21.4741 23.2832 19.25V8.75C23.2832 6.52595 21.4741 4.7168 19.25 4.7168H8.75Z" fill="#6941C6" stroke="#6941C6" stroke-width="0.1"/>
<path d="M8.92078 3.98376L8.95007 4.02869L9.33484 4.61169L12.0594 8.6947L12.2343 8.9574L12.2352 8.95837C12.3087 9.07196 12.3505 9.20145 12.3505 9.33337V9.43298H10.913L10.8837 9.38806L10.4979 8.80505V8.80408L7.83289 4.80994V4.80896L7.38953 4.13806L7.28699 3.98376H8.92078Z" fill="#6941C6" stroke="#6941C6" stroke-width="0.2"/>
<path d="M16.504 3.98376L16.5333 4.02869L16.9181 4.61169L19.6427 8.6947L19.8175 8.9574L19.8185 8.95837C19.8919 9.07196 19.9337 9.20145 19.9337 9.33337V9.43298H18.4962L18.4669 9.38806L18.0812 8.80505V8.80408L15.3575 4.72205L14.9728 4.13806L14.8702 3.98376H16.504Z" fill="#6941C6" stroke="#6941C6" stroke-width="0.2"/>
<path d="M24.5996 8.65039V10.0166H3.40039V8.65039H24.5996Z" fill="#6941C6" stroke="#6941C6" stroke-width="0.2"/>
<path d="M11.3207 13.4108C11.5298 13.2884 11.7866 13.2853 11.9984 13.403L17.2484 16.319C17.4653 16.4395 17.6 16.6684 17.6 16.9166C17.6 17.1648 17.4654 17.3939 17.2484 17.5143L11.9984 20.4303C11.8951 20.4876 11.7805 20.5162 11.6664 20.5162C11.5468 20.5162 11.4267 20.4855 11.3197 20.4225C11.1113 20.2997 10.9839 20.0757 10.9838 19.8336V13.9996C10.9839 13.7576 11.1113 13.5335 11.3197 13.4108H11.3207ZM12.35 18.6715L15.5092 16.9166L12.35 15.1608V18.6715Z" fill="#6941C6" stroke="#6941C6" stroke-width="0.2"/>
</svg>
