<svg width="24" height="24" viewBox="0 0 24 24" fill="none" xmlns="http://www.w3.org/2000/svg">
<g clip-path="url(#clip0_410_3497)">
<path d="M6.64672 23.9983H2.81388C1.26318 23.9983 0.00158691 22.7367 0.00158691 21.186V2.8123C0.00158691 1.2616 1.26318 0 2.81388 0H11.8132C12.5644 0 13.2706 0.292526 13.8018 0.823722L15.6767 2.69859C16.2079 3.22978 16.5004 3.936 16.5004 4.68716V9.85143C16.5004 10.3692 16.0807 10.7889 15.563 10.7889C15.0452 10.7889 14.6255 10.3692 14.6255 9.85143V4.68716C14.6255 4.43677 14.528 4.20138 14.351 4.0243L12.4761 2.14944C12.299 1.9724 12.0636 1.87486 11.8132 1.87486H2.81388C2.29698 1.87486 1.87645 2.2954 1.87645 2.8123V21.186C1.87645 21.7029 2.29698 22.1234 2.81388 22.1234H6.64676C7.16451 22.1234 7.5842 22.5431 7.5842 23.0608C7.5842 23.5786 7.16446 23.9983 6.64672 23.9983Z" fill="#6941C6"/>
<path d="M9.9188 23.449C9.33815 22.8684 9.20194 21.9887 9.57987 21.2601L10.9418 18.6348C11.0747 18.3786 11.2455 18.1452 11.4496 17.9411L19.199 10.1918C20.2955 9.09526 22.0796 9.09526 23.1762 10.1918C24.2727 11.2883 24.2727 13.0725 23.1762 14.169L15.4268 21.9183C15.2227 22.1223 14.9894 22.2932 14.7331 22.4261L12.1077 23.788C11.3789 24.1661 10.4992 24.0295 9.9188 23.449ZM20.5246 11.5175L12.7753 19.2669C12.7073 19.3349 12.6503 19.4127 12.606 19.4981L11.2442 22.1235L13.8699 20.7619C13.9553 20.7176 14.033 20.6606 14.1011 20.5926L21.8504 12.8433C22.2159 12.4777 22.2159 11.883 21.8504 11.5175C21.4849 11.152 20.8902 11.152 20.5246 11.5175Z" fill="#6941C6"/>
<path d="M11.8133 8.99938H4.68878C4.17103 8.99938 3.75134 8.57969 3.75134 8.06194C3.75134 7.5442 4.17103 7.12451 4.68878 7.12451H11.8133C12.331 7.12451 12.7507 7.5442 12.7507 8.06194C12.7507 8.57969 12.331 8.99938 11.8133 8.99938Z" fill="#6941C6"/>
<path d="M11.8133 12.7491H4.68878C4.17103 12.7491 3.75134 12.3294 3.75134 11.8117C3.75134 11.294 4.17103 10.8743 4.68878 10.8743H11.8133C12.331 10.8743 12.7507 11.294 12.7507 11.8117C12.7507 12.3294 12.331 12.7491 11.8133 12.7491Z" fill="#6941C6"/>
<path d="M8.06353 16.4988H4.68878C4.17103 16.4988 3.75134 16.0791 3.75134 15.5613C3.75134 15.0436 4.17103 14.6239 4.68878 14.6239H8.06353C8.58128 14.6239 9.00096 15.0436 9.00096 15.5613C9.00096 16.0791 8.58123 16.4988 8.06353 16.4988Z" fill="#6941C6"/>
</g>
<defs>
<clipPath id="clip0_410_3497">
<rect width="24" height="24" fill="white"/>
</clipPath>
</defs>
</svg>
