<svg width="24" height="24" viewBox="0 0 24 24" fill="none" xmlns="http://www.w3.org/2000/svg">
<path d="M8.34261 2.6911L8.61677 3.38919L8.34261 2.6911ZM8.00282 2.83186L7.703 2.1444L8.00282 2.83186ZM2.691 8.34269L1.99291 8.06852L2.691 8.34269ZM2.69093 15.6562L1.99287 15.9305L2.69093 15.6562ZM8.00135 21.1673L7.70105 21.8545L8.00135 21.1673ZM15.6562 21.3089L15.3815 20.611L15.6562 21.3089ZM15.9975 21.1672L15.6971 20.48L15.9975 21.1672ZM21.3088 8.34273L20.6108 8.61727L21.3088 8.34273ZM21.1671 8.00136L21.8543 7.70105L21.1671 8.00136ZM15.6561 2.69104L15.3819 3.3891C15.4879 3.43075 15.593 3.47431 15.697 3.51973L15.997 2.83234L16.297 2.14495C16.1759 2.09211 16.0537 2.04144 15.9304 1.99298L15.6561 2.69104ZM21.1671 8.00136L20.4799 8.30168C20.5254 8.40589 20.5691 8.5111 20.6108 8.61727L21.3088 8.34273L22.0067 8.06819C21.9581 7.94467 21.9073 7.82228 21.8543 7.70105L21.1671 8.00136ZM21.3086 15.6561L20.6107 15.3814C20.569 15.4873 20.5254 15.5923 20.48 15.6963L21.1672 15.9967L21.8543 16.2972C21.9072 16.1762 21.958 16.0541 22.0065 15.9309L21.3086 15.6561ZM15.9975 21.1672L15.6971 20.48C15.5929 20.5256 15.4877 20.5692 15.3815 20.611L15.6562 21.3089L15.9308 22.0068C16.0543 21.9582 16.1767 21.9074 16.2979 21.8544L15.9975 21.1672ZM8.34257 21.3089L8.6171 20.6109C8.51099 20.5692 8.40582 20.5255 8.30166 20.48L8.00135 21.1673L7.70105 21.8545C7.82222 21.9075 7.94456 21.9582 8.06803 22.0068L8.34257 21.3089ZM2.83174 15.996L3.51917 15.6961C3.47391 15.5924 3.43051 15.4877 3.38899 15.382L2.69093 15.6562L1.99287 15.9305C2.04117 16.0534 2.09167 16.1753 2.14431 16.2959L2.83174 15.996ZM2.691 8.34269L3.38909 8.61687C3.43059 8.51119 3.47399 8.40645 3.51923 8.30271L2.83177 8.00288L2.14431 7.70305C2.09168 7.82373 2.04119 7.94557 1.99291 8.06852L2.691 8.34269ZM8.00282 2.83186L8.30264 3.51933C8.40637 3.47409 8.5111 3.4307 8.61677 3.38919L8.34261 2.6911L8.06845 1.99301C7.94551 2.04129 7.82367 2.09177 7.703 2.1444L8.00282 2.83186ZM8.34261 2.6911L8.61677 3.38919C8.86468 3.29183 9.20348 3.35368 9.85304 3.62267C10.131 3.73779 10.4901 3.89958 10.8258 4.01858C11.1719 4.14123 11.5741 4.25037 12.0002 4.25037V3.50037V2.75037C11.8209 2.75037 11.6041 2.70302 11.327 2.60476C11.0394 2.50286 10.7711 2.37934 10.427 2.23681C9.8322 1.99051 8.94763 1.64772 8.06845 1.99301L8.34261 2.6911ZM5.9895 5.98962L6.51983 6.51995C6.82109 6.2187 7.02831 5.85715 7.1862 5.52582C7.3394 5.20437 7.47885 4.83613 7.59396 4.55825C7.86295 3.90887 8.05868 3.62572 8.30264 3.51933L8.00282 2.83186L7.703 2.1444C6.83738 2.52191 6.45443 3.38966 6.20815 3.9842C6.06562 4.32827 5.96329 4.60525 5.83211 4.88051C5.70563 5.1459 5.5859 5.33257 5.45917 5.45929L5.9895 5.98962ZM2.83177 8.00288L3.51923 8.30271C3.62564 8.05875 3.9088 7.86299 4.55813 7.59399C4.83598 7.47888 5.20421 7.33942 5.52564 7.18626C5.85694 7.02838 6.21848 6.82121 6.51974 6.52005L5.9895 5.98962L5.45926 5.4592C5.33249 5.58593 5.14578 5.70566 4.88037 5.83214C4.60507 5.96333 4.32811 6.06566 3.98403 6.2082C3.38948 6.45451 2.52182 6.83749 2.14431 7.70305L2.83177 8.00288ZM3.50024 12.0004H4.25024C4.25024 11.5742 4.14111 11.172 4.01846 10.8259C3.89947 10.4902 3.73767 10.1311 3.62256 9.85315C3.35356 9.20358 3.29172 8.86477 3.38909 8.61687L2.691 8.34269L1.99291 8.06852C1.64761 8.9477 1.99039 9.83228 2.23669 10.427C2.37922 10.7712 2.50273 11.0395 2.60464 11.3271C2.70289 11.6043 2.75024 11.821 2.75024 12.0004H3.50024ZM2.69093 15.6562L3.38899 15.382C3.29171 15.1344 3.35342 14.796 3.62237 14.1468C3.73744 13.869 3.89925 13.5101 4.01825 13.1745C4.14093 12.8287 4.25012 12.4266 4.25024 12.0006L3.50024 12.0004L2.75024 12.0002C2.75019 12.1794 2.70281 12.3961 2.60454 12.6731C2.50261 12.9605 2.37912 13.2286 2.23658 13.5727C1.9903 14.1672 1.64752 15.0515 1.99287 15.9305L2.69093 15.6562ZM8.00135 21.1673L8.30166 20.48C8.05777 20.3734 7.8622 20.0902 7.59345 19.441C7.47843 19.1632 7.33911 18.7951 7.18599 18.4737C7.02817 18.1425 6.82103 17.781 6.51983 17.4798L5.9895 18.0101L5.45917 18.5405C5.58581 18.6671 5.70546 18.8536 5.83183 19.1189C5.96288 19.3939 6.06514 19.6708 6.20752 20.0147C6.45355 20.6091 6.83608 21.4766 7.70105 21.8545L8.00135 21.1673ZM15.6562 21.3089L15.3815 20.611C15.1342 20.7084 14.7959 20.6468 14.1467 20.378C13.8689 20.263 13.5099 20.1012 13.1744 19.9822C12.8285 19.8596 12.4264 19.7504 12.0004 19.7504L12.0002 20.5004L12.0001 21.2504C12.1793 21.2504 12.396 21.2978 12.6731 21.396C12.9606 21.4979 13.2287 21.6214 13.5728 21.7639C14.1673 22.0101 15.0518 22.3527 15.9308 22.0068L15.6562 21.3089ZM18.01 18.0101L17.4796 17.4799C17.1785 17.7811 16.9714 18.1424 16.8135 18.4736C16.6604 18.7949 16.5209 19.163 16.4058 19.4408C16.1369 20.0898 15.9411 20.3733 15.6971 20.48L15.9975 21.1672L16.2979 21.8544C17.1626 21.4765 17.5453 20.6093 17.7916 20.0149C17.9341 19.671 18.0364 19.3942 18.1676 19.119C18.294 18.8538 18.4137 18.6671 18.5404 18.5404L18.01 18.0101ZM21.1672 15.9967L20.48 15.6963C20.3732 15.9405 20.0895 16.1364 19.4404 16.4055C19.1626 16.5207 18.7946 16.6603 18.4733 16.8135C18.1421 16.9715 17.7808 17.1787 17.4797 17.4798L18.01 18.0101L18.5403 18.5405C18.6671 18.4137 18.8538 18.2939 19.119 18.1674C19.3942 18.0362 19.671 17.9337 20.0149 17.7911C20.6093 17.5447 21.4763 17.1618 21.8543 16.2972L21.1672 15.9967ZM5.9895 18.0101L6.51977 17.4797C6.21856 17.1786 5.85709 16.9714 5.52582 16.8134C5.20443 16.6602 4.83622 16.5206 4.55836 16.4054C3.90907 16.1362 3.62568 15.9403 3.51917 15.6961L2.83174 15.996L2.14431 16.2959C2.52185 17.1613 3.38931 17.5445 3.98388 17.791C4.32794 17.9337 4.60492 18.0361 4.88023 18.1674C5.14566 18.2939 5.33242 18.4137 5.45923 18.5405L5.9895 18.0101ZM21.3088 8.34273L20.6108 8.61727C20.7083 8.86496 20.6466 9.20361 20.3777 9.8532C20.2627 10.1311 20.1009 10.4903 19.982 10.826C19.8594 11.172 19.7502 11.5743 19.7502 12.0004H20.5002H21.2502C21.2502 11.821 21.2976 11.6042 21.3958 11.327C21.4977 11.0394 21.6212 10.7711 21.7637 10.4269C22.0099 9.83205 22.3525 8.94732 22.0067 8.06819L21.3088 8.34273ZM18.01 5.98865L17.4797 6.51898C17.7808 6.82013 18.1422 7.02732 18.4734 7.18521C18.7948 7.3384 19.1628 7.47783 19.4407 7.59294C20.0898 7.86189 20.3732 8.05762 20.4799 8.30168L21.1671 8.00136L21.8543 7.70105C21.4764 6.8362 20.6092 6.45343 20.0148 6.20717C19.6709 6.06468 19.394 5.96234 19.1189 5.83119C18.8536 5.70474 18.667 5.58502 18.5403 5.45832L18.01 5.98865ZM20.5002 12.0004L19.7502 12.0006C19.7504 12.4265 19.8595 12.8286 19.9822 13.1745C20.1011 13.51 20.2629 13.869 20.3779 14.1467C20.6467 14.7959 20.7081 15.1341 20.6107 15.3814L21.3086 15.6561L22.0065 15.9309C22.3525 15.0519 22.0099 14.1674 21.7638 13.5729C21.6213 13.2288 21.4979 12.9607 21.3959 12.6732C21.2977 12.3961 21.2503 12.1794 21.2502 12.0002L20.5002 12.0004ZM12.0002 20.5004V19.7504C11.5742 19.7504 11.1719 19.8595 10.8259 19.9821C10.4902 20.101 10.131 20.2628 9.85307 20.3778C9.20346 20.6467 8.86479 20.7083 8.6171 20.6109L8.34257 21.3089L8.06803 22.0068C8.94713 22.3526 9.83188 22.01 10.4267 21.7638C10.771 21.6213 11.0393 21.4979 11.3269 21.396C11.6041 21.2977 11.8209 21.2504 12.0002 21.2504V20.5004ZM15.997 2.83234L15.697 3.51973C15.941 3.6262 16.1368 3.90938 16.4058 4.55826C16.521 4.83594 16.6605 5.20398 16.8136 5.5252C16.9715 5.85632 17.1786 6.21764 17.4795 6.51879L18.01 5.98865L18.5405 5.45851C18.4138 5.33171 18.2941 5.14501 18.1676 4.8797C18.0364 4.60449 17.9341 4.3277 17.7915 3.98378C17.5451 3.38948 17.162 2.52245 16.297 2.14495L15.997 2.83234ZM15.6561 2.69104L15.9304 1.99298C15.0513 1.64762 14.167 1.99045 13.5725 2.23674C13.2285 2.37929 12.9604 2.50278 12.673 2.60471C12.396 2.70297 12.1793 2.75033 12.0001 2.75037L12.0002 3.50037L12.0004 4.25037C12.4264 4.25028 12.8285 4.1411 13.1744 4.01842C13.51 3.89941 13.8689 3.7376 14.1467 3.62251C14.7959 3.35354 15.1343 3.29182 15.3819 3.3891L15.6561 2.69104Z" fill="#6941C6"/>
<circle cx="9.79858" cy="9.7986" r="0.791538" transform="rotate(45 9.79858 9.7986)" fill="#2B3F6C" stroke="#6941C6" stroke-width="1.58308"/>
<circle cx="14.2015" cy="14.2016" r="0.791538" transform="rotate(45 14.2015 14.2016)" fill="#2B3F6C" stroke="#6941C6" stroke-width="1.58308"/>
<path d="M9.76128 14.2387L14.2389 9.76111" stroke="#6941C6" stroke-width="1.2" stroke-linecap="round" stroke-linejoin="round"/>
</svg>
