<svg width="19" height="19" viewBox="0 0 19 19" fill="none" xmlns="http://www.w3.org/2000/svg">
<path d="M8.66874 10.0542L7.52082 8.92607C7.37569 8.78093 7.19439 8.70836 6.97695 8.70836C6.7595 8.70836 6.57135 8.78753 6.41249 8.94586C6.26735 9.091 6.19478 9.27572 6.19478 9.50003C6.19478 9.72434 6.26735 9.90906 6.41249 10.0542L8.11457 11.7563C8.27291 11.9146 8.45763 11.9938 8.66874 11.9938C8.87985 11.9938 9.06457 11.9146 9.22291 11.7563L12.5875 8.3917C12.7458 8.23336 12.8216 8.04864 12.8147 7.83753C12.8078 7.62642 12.7321 7.4417 12.5875 7.28336C12.4292 7.12503 12.2413 7.0427 12.0238 7.03636C11.8064 7.03003 11.6182 7.10577 11.4594 7.26357L8.66874 10.0542ZM6.45207 17.2188L5.30416 15.2792L3.12707 14.8042C2.92916 14.7646 2.77082 14.6625 2.65207 14.4978C2.53332 14.3332 2.48714 14.1516 2.51353 13.9532L2.73124 11.7167L1.24687 10.0146C1.11492 9.86947 1.04895 9.69795 1.04895 9.50003C1.04895 9.30211 1.11492 9.13059 1.24687 8.98545L2.73124 7.28336L2.51353 5.04691C2.48714 4.84899 2.53332 4.66743 2.65207 4.50224C2.77082 4.33704 2.92916 4.23492 3.12707 4.19586L5.30416 3.72086L6.45207 1.78128C6.55763 1.60975 6.70277 1.49417 6.88749 1.43453C7.07221 1.37489 7.25694 1.38492 7.44166 1.46461L9.49999 2.33545L11.5583 1.46461C11.743 1.38545 11.9278 1.37542 12.1125 1.43453C12.2972 1.49364 12.4424 1.60923 12.5479 1.78128L13.6958 3.72086L15.8729 4.19586C16.0708 4.23545 16.2292 4.33784 16.3479 4.50303C16.4667 4.66823 16.5128 4.84952 16.4864 5.04691L16.2687 7.28336L17.7531 8.98545C17.8851 9.13059 17.951 9.30211 17.951 9.50003C17.951 9.69795 17.8851 9.86947 17.7531 10.0146L16.2687 11.7167L16.4864 13.9532C16.5128 14.1511 16.4667 14.3326 16.3479 14.4978C16.2292 14.663 16.0708 14.7651 15.8729 14.8042L13.6958 15.2792L12.5479 17.2188C12.4424 17.3903 12.2972 17.5059 12.1125 17.5655C11.9278 17.6252 11.743 17.6151 11.5583 17.5354L9.49999 16.6646L7.44166 17.5354C7.25694 17.6146 7.07221 17.6246 6.88749 17.5655C6.70277 17.5064 6.55763 17.3908 6.45207 17.2188Z" fill="#34C759"/>
</svg>
